<svg width="43" height="44" viewBox="0 0 43 44" fill="none" xmlns="http://www.w3.org/2000/svg">
<path d="M21.333 2.78864C21.333 1.68305 20.4348 0.776995 19.3341 0.881168C15.8443 1.21146 12.4795 2.40283 9.54759 4.36186C6.0591 6.6928 3.34015 10.0058 1.73457 13.8821C0.128988 17.7583 -0.291106 22.0235 0.52741 26.1385C1.34592 30.2534 3.36628 34.0333 6.333 37C9.29972 39.9667 13.0796 41.9871 17.1945 42.8056C21.3095 43.6241 25.5747 43.204 29.4509 41.5984C33.3272 39.9929 36.6402 37.2739 38.9711 33.7854C40.9302 30.8535 42.1215 27.4887 42.4518 23.9989C42.556 22.8983 41.65 22 40.5444 22C39.4388 22 38.5546 22.8993 38.4262 23.9974C38.1111 26.694 37.1611 29.2879 35.6422 31.5611C33.7512 34.3912 31.0634 36.597 27.9188 37.8995C24.7742 39.2021 21.3139 39.5429 17.9756 38.8788C14.6373 38.2148 11.5708 36.5758 9.16403 34.169C6.75724 31.7622 5.11819 28.6957 4.45416 25.3574C3.79013 22.0191 4.13094 18.5588 5.43349 15.4142C6.73603 12.2696 8.94182 9.58181 11.7719 7.6908C14.0451 6.17193 16.639 5.22187 19.3356 4.90677C20.4337 4.77845 21.333 3.89422 21.333 2.78864Z" fill="#0A44D6"/>
</svg>
