<svg width="116" height="40" viewBox="0 0 116 40" fill="none" xmlns="http://www.w3.org/2000/svg">
<path d="M8.52734 32.1672H14.5828L27.9477 19.9992L14.5813 7.83203L8.52734 7.83437L21.8922 19.9992L8.52734 32.1672Z" fill="#0A44D6"/>
<path d="M19.0273 7.83203L23.4828 11.8883H38.4242V28.1125H23.482L19.0273 32.1688H42.4797V7.83203H19.0273Z" fill="#0A44D6"/>
<path d="M54.3656 18.0717C54.8672 17.8113 55.4526 17.6811 56.1219 17.6811C56.9552 17.6811 57.6684 17.8819 58.2617 18.2834C58.5492 18.4747 58.7962 18.7208 58.9885 19.0077C59.1807 19.2946 59.3145 19.6166 59.382 19.9553H61.5695C61.4708 19.1876 61.1541 18.4642 60.657 17.8709C60.1354 17.2602 59.4765 16.7818 58.7344 16.4749C57.9081 16.1316 57.0204 15.9609 56.1258 15.9733C55.032 15.9733 54.0703 16.1816 53.2406 16.5983C52.4416 16.9882 51.7672 17.5931 51.293 18.3452C50.8242 19.092 50.5898 19.9561 50.5898 20.9374C50.5898 21.9186 50.8242 22.7827 51.293 23.5295C51.7651 24.2818 52.4377 24.8876 53.2352 25.2788C54.0653 25.6954 55.027 25.9038 56.1203 25.9038C57.0149 25.9161 57.9027 25.7454 58.7289 25.4022C59.4728 25.0966 60.1336 24.619 60.657 24.0084C61.1541 23.4216 61.4731 22.7049 61.5766 21.9428H59.3891C59.2516 22.6135 58.8552 23.2031 58.2859 23.5834C57.6948 23.9959 56.9758 24.2022 56.1289 24.2022C55.4591 24.2022 54.8737 24.072 54.3727 23.8116C53.8812 23.5598 53.4766 23.1666 53.2109 22.6827C52.9375 22.192 52.8008 21.6124 52.8008 20.9436C52.8008 20.2665 52.9375 19.6839 53.2109 19.1959C53.4763 18.7154 53.8781 18.3242 54.3656 18.0717Z" fill="#0A44D6"/>
<path d="M72.0578 16.2074L71.8148 18.5347C71.7711 18.4629 71.7273 18.3918 71.6812 18.3222C71.217 17.6112 70.5928 17.0186 69.8586 16.5918C69.1277 16.1761 68.2994 15.9626 67.4586 15.973C66.5336 15.973 65.7144 16.1814 65.0008 16.598C64.2923 17.0107 63.7134 17.6129 63.3289 18.3371C62.9273 19.0819 62.7266 19.9491 62.7266 20.9386C62.7266 21.9199 62.9273 22.784 63.3289 23.5308C63.7115 24.2583 64.2908 24.8636 65.0008 25.2777C65.7144 25.6944 66.5336 25.9027 67.4586 25.9027C68.2994 25.9133 69.1277 25.6997 69.8586 25.284C70.5926 24.8576 71.2144 24.2625 71.6727 23.548C71.7211 23.4754 71.7664 23.3996 71.8117 23.3246L72.0578 25.6683H74.2984L73.7969 20.9386L74.2984 16.2066L72.0578 16.2074ZM71.0125 22.6199C70.6388 23.0865 70.1752 23.4733 69.6492 23.7574C69.1347 24.0308 68.56 24.1715 67.9773 24.1668C67.4258 24.177 66.882 24.0354 66.4055 23.7574C65.9486 23.4841 65.5754 23.0907 65.3266 22.6199C65.0684 22.0976 64.9341 21.5229 64.9341 20.9402C64.9341 20.3576 65.0684 19.7828 65.3266 19.2605C65.5754 18.7898 65.9486 18.3964 66.4055 18.123C66.882 17.8451 67.4258 17.7035 67.9773 17.7136C68.56 17.709 69.1347 17.8497 69.6492 18.123C70.1752 18.4071 70.6388 18.794 71.0125 19.2605C71.4184 19.7635 71.7377 20.3307 71.957 20.9386C71.738 21.5478 71.4187 22.116 71.0125 22.6199Z" fill="#0A44D6"/>
<path d="M82.173 15.9735C81.5941 15.9608 81.0207 16.087 80.5004 16.3415C80.0246 16.5833 79.6098 16.9306 79.2887 17.3571C78.9598 17.8003 78.7074 18.295 78.5418 18.8212L78.1098 16.204H75.9355L76.5043 19.2306V25.6681H78.6777V21.3915C78.6777 20.6217 78.8145 19.9722 79.0879 19.4431C79.3355 18.9403 79.7293 18.5237 80.2168 18.2478C80.7191 17.9737 81.2848 17.8353 81.8574 17.8462C82.1316 17.8475 82.4051 17.8642 82.677 17.8962C82.948 17.9261 83.216 17.9765 83.4793 18.047V16.1407C83.277 16.0802 83.0699 16.0381 82.8605 16.0149C82.6324 15.9878 82.4027 15.9739 82.173 15.9735Z" fill="#0A44D6"/>
<path d="M93.7109 12.7937L93.1188 18.5883C93.0641 18.4977 93.0086 18.4078 92.95 18.3203C92.4852 17.6089 91.8594 17.0162 91.1242 16.5898C90.393 16.1744 89.5648 15.9608 88.7242 15.9711C87.7992 15.9711 86.9797 16.1795 86.2664 16.5961C85.5578 17.0089 84.9789 17.6112 84.5938 18.3352C84.193 19.0768 83.9922 19.9435 83.9922 20.9352C83.9922 21.9164 84.193 22.7805 84.5938 23.5273C84.9766 24.2547 85.5562 24.8599 86.2664 25.2742C86.9797 25.6909 87.7992 25.8992 88.7242 25.8992C89.5648 25.9095 90.393 25.6959 91.1242 25.2805C91.8586 24.8532 92.4805 24.257 92.9383 23.5414C92.9977 23.4508 93.0555 23.3578 93.1109 23.2641L93.3562 25.6648H95.5805L95.0953 20.7992L95.9484 12.7891L93.7109 12.7937ZM92.2813 22.618C91.9078 23.0844 91.4438 23.4712 90.918 23.7555C90.4031 24.0287 89.8289 24.1695 89.2461 24.1648C88.6945 24.1751 88.1508 24.0335 87.6742 23.7555C87.2164 23.4827 86.8422 23.0891 86.593 22.618C86.3352 22.0957 86.2008 21.5209 86.2008 20.9383C86.2008 20.3556 86.3352 19.7809 86.593 19.2586C86.8414 18.7877 87.2149 18.3942 87.6719 18.1211C88.15 17.8416 88.6961 17.6994 89.2492 17.7102C89.832 17.7055 90.4063 17.8462 90.9211 18.1195C91.4469 18.4038 91.9109 18.7906 92.2844 19.257C92.6891 19.7609 93.007 20.3285 93.2258 20.9367C93.0063 21.5456 92.6875 22.1138 92.2813 22.618Z" fill="#0A44D6"/>
<path d="M107.141 21.4734C106.917 21.0834 106.535 20.7628 105.995 20.5117C105.455 20.2607 104.705 20.0902 103.745 20L101.353 19.7828C100.629 19.7162 100.133 19.5964 99.8648 19.4234C99.5969 19.2505 99.4633 19.0422 99.4641 18.7984C99.4641 18.4084 99.6844 18.113 100.124 17.9125C100.564 17.712 101.175 17.6117 101.955 17.6117C102.691 17.6117 103.28 17.6925 103.72 17.8539C104.159 18.0154 104.488 18.2159 104.706 18.4555C104.905 18.6613 105.041 18.9196 105.097 19.2H107.304C107.249 18.5679 106.978 17.9741 106.535 17.5195C106.077 17.0347 105.464 16.6555 104.695 16.382C103.927 16.1086 103.052 15.9722 102.07 15.9727C101.123 15.9727 100.291 16.087 99.5781 16.3156C98.8648 16.5443 98.307 16.8758 97.9063 17.3102C97.5047 17.7451 97.3039 18.2857 97.3039 18.932C97.3047 19.3795 97.432 19.8177 97.6719 20.1953C97.9172 20.5906 98.3297 20.925 98.9094 21.1984C99.4891 21.4719 100.28 21.6529 101.284 21.7414L103.141 21.9086C103.988 21.9867 104.564 22.1039 104.871 22.2602C105.178 22.4164 105.331 22.6451 105.33 22.9461C105.33 23.3914 105.102 23.723 104.645 23.9406C104.188 24.1584 103.51 24.2667 102.609 24.2656C102.047 24.2743 101.487 24.2011 100.945 24.0484C100.512 23.9327 100.111 23.7188 99.7734 23.4234C99.4922 23.1773 99.3 22.845 99.2266 22.4781H97.0195C97.0469 23.1432 97.3039 23.7783 97.7469 24.275C98.1984 24.7959 98.8367 25.1972 99.6609 25.4789C100.485 25.7607 101.461 25.9029 102.588 25.9055C103.681 25.9055 104.59 25.78 105.313 25.5289C106.037 25.2779 106.577 24.9185 106.935 24.4508C107.295 23.9748 107.484 23.3916 107.47 22.7953C107.479 22.3334 107.366 21.8773 107.141 21.4734Z" fill="#0A44D6"/>
</svg>
