<svg width="156" height="40" viewBox="0 0 156 40" fill="none" xmlns="http://www.w3.org/2000/svg">
<path d="M8.35156 32.1672H14.407L27.7719 19.9992L14.4055 7.83203L8.35156 7.83437L21.7164 19.9992L8.35156 32.1672Z" fill="#EE7110"/>
<path d="M30.1371 7.83204C27.1972 7.82771 24.3559 8.89225 22.1426 10.8274L25.1723 13.5852C26.3718 12.6567 27.8077 12.0833 29.3168 11.9299C30.8259 11.7765 32.3478 12.0493 33.7097 12.7174C35.0715 13.3855 36.2188 14.422 37.0211 15.7093C37.8235 16.9966 38.2488 18.4831 38.2488 20C38.2488 21.5169 37.8235 23.0034 37.0211 24.2907C36.2188 25.578 35.0715 26.6146 33.7097 27.2826C32.3478 27.9507 30.8259 28.2235 29.3168 28.0701C27.8077 27.9168 26.3718 27.3433 25.1723 26.4149L22.1426 29.1727C23.6245 30.4643 25.3973 31.3777 27.3093 31.8347C29.2212 32.2916 31.2154 32.2785 33.1213 31.7965C35.0271 31.3145 36.7877 30.3779 38.2525 29.0669C39.7174 27.7559 40.8427 26.1095 41.5324 24.2686C42.222 22.4277 42.4553 20.4472 42.2124 18.4964C41.9695 16.5457 41.2576 14.6828 40.1375 13.0673C39.0175 11.4517 37.5227 10.1316 35.7811 9.21988C34.0395 8.30815 32.1029 7.83195 30.1371 7.83204Z" fill="#EE7110"/>
<path d="M30.0254 15.9453C29.4006 15.9447 28.7841 16.0891 28.2246 16.3672L32.2168 20.0016L28.2254 23.6359C28.7733 23.9075 29.3755 24.0516 29.987 24.0576C30.5984 24.0636 31.2033 23.9313 31.7564 23.6705C32.3095 23.4097 32.7965 23.0272 33.181 22.5517C33.5654 22.0762 33.8374 21.5199 33.9765 20.9244C34.1156 20.329 34.1183 19.7098 33.9844 19.1131C33.8504 18.5165 33.5833 17.9578 33.2031 17.479C32.8228 17.0001 32.3391 16.6134 31.7883 16.3478C31.2375 16.0823 30.6338 15.9447 30.0223 15.9453H30.0254Z" fill="#EE7110"/>
<path d="M54.1891 18.0694C54.6906 17.809 55.276 17.6788 55.9453 17.6788C56.7786 17.6788 57.4919 17.8795 58.0852 18.2811C58.3727 18.4723 58.6198 18.7184 58.812 19.0053C59.0043 19.2922 59.138 19.6143 59.2055 19.953H61.393C61.2923 19.1854 60.9731 18.463 60.4734 17.8717C59.9521 17.2606 59.2931 16.7818 58.5508 16.4748C57.7245 16.1316 56.8368 15.9609 55.9422 15.9733C54.8484 15.9733 53.8867 16.1816 53.057 16.5983C52.2578 16.9882 51.5833 17.5935 51.1094 18.3459C50.6406 19.0928 50.4062 19.9566 50.4062 20.9373C50.4062 21.9181 50.6406 22.7821 51.1094 23.5295C51.5835 24.2818 52.258 24.887 53.057 25.2772C53.8872 25.6939 54.849 25.9022 55.9422 25.9022C56.8368 25.9146 57.7245 25.7439 58.5508 25.4006C59.293 25.0937 59.9518 24.6152 60.4734 24.0045C60.9723 23.4189 61.293 22.7026 61.3977 21.9405H59.2102C59.0727 22.6112 58.6764 23.2007 58.107 23.5811C57.5154 23.9936 56.7964 24.1998 55.95 24.1998C55.2802 24.1998 54.6948 24.0696 54.1937 23.8092C53.7024 23.5575 53.2978 23.1642 53.032 22.6803C52.7586 22.1907 52.6219 21.611 52.6219 20.9413C52.6219 20.2642 52.7586 19.6816 53.032 19.1936C53.2983 18.7129 53.7009 18.3217 54.1891 18.0694Z" fill="#EE7110"/>
<path d="M71.3031 16.5977C70.4391 16.181 69.4331 15.9727 68.2852 15.9727C67.1372 15.9727 66.131 16.181 65.2664 16.5977C64.4444 16.9793 63.7443 17.5812 63.2438 18.3367C62.7589 19.0805 62.5161 19.9471 62.5156 20.9367C62.5156 21.918 62.7583 22.782 63.2438 23.5289C63.7425 24.2881 64.4429 24.8932 65.2664 25.2766C66.1305 25.6932 67.1367 25.9016 68.2852 25.9016C69.4336 25.9016 70.4396 25.6932 71.3031 25.2766C72.1267 24.8931 72.8273 24.2879 73.3266 23.5289C73.8109 22.782 74.0531 21.918 74.0531 20.9367C74.0531 19.9471 73.8107 19.0805 73.3258 18.3367C72.825 17.5815 72.1249 16.9796 71.3031 16.5977ZM71.4117 22.668C71.1196 23.1548 70.6928 23.5466 70.1828 23.7961C69.6531 24.0638 69.0206 24.1977 68.2852 24.1977C67.5602 24.1977 66.9302 24.0638 66.3953 23.7961C65.8818 23.5485 65.4518 23.1564 65.1578 22.668C64.8677 22.1826 64.7229 21.6055 64.7234 20.9367C64.724 20.268 64.8688 19.6911 65.1578 19.2062C65.4521 18.7174 65.8828 18.325 66.3969 18.0773C66.9323 17.8102 67.5622 17.6763 68.2867 17.6758C69.0227 17.6758 69.6552 17.8096 70.1844 18.0773C70.6944 18.3271 71.1213 18.7192 71.4133 19.2062C71.7029 19.6917 71.8479 20.2685 71.8484 20.9367C71.849 21.6049 71.7034 22.182 71.4117 22.668Z" fill="#EE7110"/>
<path d="M77.9415 12.8195C77.6811 12.5904 77.3384 12.476 76.9134 12.4766C76.5009 12.4766 76.1611 12.5909 75.8939 12.8195C75.7676 12.9318 75.6665 13.0696 75.5972 13.2238C75.528 13.378 75.4922 13.5451 75.4922 13.7141C75.4922 13.8831 75.528 14.0502 75.5972 14.2044C75.6665 14.3585 75.7676 14.4963 75.8939 14.6086C76.1611 14.8367 76.5009 14.951 76.9134 14.9516C77.3368 14.9516 77.6796 14.8372 77.9415 14.6086C78.0656 14.4949 78.1646 14.3567 78.2324 14.2027C78.3001 14.0487 78.3351 13.8823 78.3351 13.7141C78.3351 13.5458 78.3001 13.3794 78.2324 13.2254C78.1646 13.0714 78.0656 12.9332 77.9415 12.8195Z" fill="#EE7110"/>
<path d="M75.8281 16.1367V25.6687H78.0016V16.1367L76.9148 16.3375L75.8281 16.1367Z" fill="#EE7110"/>
<path d="M88.6363 16.5043C88.0113 16.1481 87.2533 15.9697 86.3621 15.9692C85.6006 15.9585 84.8501 16.1519 84.1887 16.5293C83.5301 16.9142 82.9826 17.4634 82.5996 18.1231C82.5324 18.2371 82.4699 18.3575 82.4105 18.477L82.0316 16.2004H79.8574L80.4262 19.2942V25.6653H82.5996V21.0528C82.5996 20.395 82.7251 19.8207 82.9762 19.3301C83.215 18.8531 83.5867 18.4553 84.0465 18.1848C84.5372 17.9046 85.0948 17.7631 85.6598 17.7754C86.552 17.7754 87.229 18.0291 87.691 18.5364C88.153 19.0436 88.3842 19.7934 88.3848 20.7856V25.6684H90.559V20.434C90.559 19.4965 90.3944 18.6968 90.0652 18.0348C89.7551 17.3915 89.2568 16.8578 88.6363 16.5043Z" fill="#EE7110"/>
<path d="M101.053 20.5109C100.512 20.2599 99.7622 20.0901 98.8039 20.0016L96.4125 19.7836C95.6875 19.7169 95.1927 19.5971 94.9281 19.4242C94.6635 19.2513 94.5297 19.043 94.5266 18.7992C94.5266 18.4086 94.7469 18.113 95.1875 17.9125C95.6281 17.712 96.2385 17.6117 97.0187 17.6117C97.7547 17.6117 98.3427 17.6924 98.7828 17.8539C99.2229 18.0154 99.5518 18.2161 99.7695 18.4563C99.9681 18.6618 100.104 18.9199 100.16 19.2H102.367C102.312 18.5678 102.041 17.974 101.598 17.5195C101.141 17.0346 100.528 16.6557 99.7586 16.3828C98.9893 16.1099 98.1143 15.9732 97.1336 15.9727C96.1857 15.9727 95.355 16.087 94.6414 16.3156C93.9279 16.5443 93.3706 16.876 92.9695 17.3109C92.568 17.7453 92.3672 18.2859 92.3672 18.9328C92.3676 19.38 92.4952 19.8179 92.7352 20.1953C92.9805 20.5906 93.393 20.925 93.9727 21.1984C94.5523 21.4719 95.344 21.6542 96.3477 21.7453L98.2031 21.9125C99.051 21.9906 99.6281 22.1076 99.9344 22.2633C100.241 22.419 100.394 22.6477 100.394 22.9492C100.394 23.3951 100.165 23.7266 99.7086 23.9438C99.2518 24.1609 98.5716 24.2698 97.668 24.2703C97.1059 24.2787 96.5456 24.2053 96.0047 24.0523C95.5713 23.9368 95.1703 23.7229 94.8328 23.4273C94.5511 23.1813 94.3589 22.8489 94.2859 22.482H92.0781C92.1059 23.1471 92.3632 23.7821 92.8063 24.2789C93.2568 24.7997 93.8948 25.201 94.7203 25.4828C95.5458 25.7646 96.5214 25.9068 97.6469 25.9094C98.7406 25.9094 99.6492 25.7841 100.373 25.5336C101.096 25.2831 101.638 24.9229 101.998 24.4531C102.357 23.9772 102.546 23.394 102.533 22.7977C102.54 22.3355 102.425 21.8797 102.198 21.4766C101.978 21.0844 101.596 20.7625 101.053 20.5109Z" fill="#EE7110"/>
<path d="M109.89 12.5589C108.92 12.5589 108.125 12.7261 107.507 13.0605C106.91 13.3721 106.428 13.8643 106.127 14.4667C105.827 15.0683 105.676 15.7714 105.676 16.5761V16.8605H103.652V18.5323H105.676V25.673H107.849V18.5323H111.997V16.8605H107.849V16.3081C107.849 15.5612 108.036 15.0318 108.41 14.7198C108.784 14.4079 109.355 14.2516 110.123 14.2511C110.466 14.2483 110.808 14.2818 111.144 14.3511C111.459 14.4193 111.763 14.5318 112.047 14.6855V12.9769C111.726 12.8518 111.396 12.7513 111.06 12.6761C110.676 12.5939 110.283 12.5546 109.89 12.5589Z" fill="#EE7110"/>
<path d="M115.926 12.793H113.752V25.6688H115.926V12.793Z" fill="#EE7110"/>
<path d="M126.486 16.5977C125.622 16.181 124.616 15.9727 123.468 15.9727C122.32 15.9727 121.314 16.181 120.45 16.5977C119.628 16.9796 118.929 17.5816 118.429 18.3367C117.944 19.0784 117.701 19.9451 117.701 20.9367C117.701 21.918 117.944 22.782 118.429 23.5289C118.928 24.2881 119.628 24.8932 120.452 25.2766C121.316 25.6932 122.322 25.9016 123.471 25.9016C124.619 25.9016 125.625 25.6932 126.489 25.2766C127.312 24.8931 128.013 24.2879 128.512 23.5289C128.998 22.782 129.24 21.918 129.239 20.9367C129.239 19.9471 128.997 19.0805 128.512 18.3367C128.01 17.5811 127.309 16.9791 126.486 16.5977ZM126.595 22.668C126.303 23.1548 125.876 23.5466 125.366 23.7961C124.836 24.0638 124.204 24.1977 123.468 24.1977C122.743 24.1977 122.113 24.0638 121.579 23.7961C121.065 23.5485 120.635 23.1564 120.341 22.668C120.051 22.1826 119.906 21.6055 119.907 20.9367C119.907 20.268 120.052 19.6911 120.341 19.2062C120.635 18.7176 121.065 18.3253 121.579 18.0773C122.114 17.8102 122.744 17.6763 123.468 17.6758C124.204 17.6758 124.837 17.8096 125.366 18.0773C125.876 18.3271 126.303 18.7192 126.595 19.2062C126.885 19.6917 127.03 20.2685 127.03 20.9367C127.03 21.6049 126.885 22.182 126.595 22.668Z" fill="#EE7110"/>
<path d="M145.473 16.207L142.602 23.557L139.788 16.207H137.615L134.747 23.5078L131.879 16.207H129.672L133.467 25.6719H135.691L138.688 18.2609L141.611 25.6719H143.835L147.648 16.207H145.473Z" fill="#EE7110"/>
</svg>
