<svg width="19" height="14" viewBox="0 0 19 14" fill="none" xmlns="http://www.w3.org/2000/svg">
<path d="M0 13.7003H3.3343L10.6933 7.00035L3.33344 0.300781L0 0.302072L7.35946 7.00035L0 13.7003Z" fill="white"/>
<path d="M11.9957 0.300789C10.3769 0.298402 8.81245 0.884567 7.59375 1.95008L9.26197 3.46861C9.92249 2.95739 10.7131 2.64162 11.5441 2.55716C12.375 2.4727 13.213 2.62292 13.9629 2.99078C14.7128 3.35864 15.3445 3.92938 15.7863 4.63821C16.2281 5.34704 16.4623 6.16555 16.4623 7.00078C16.4623 7.83602 16.2281 8.65453 15.7863 9.36336C15.3445 10.0722 14.7128 10.6429 13.9629 11.0108C13.213 11.3786 12.375 11.5289 11.5441 11.4444C10.7131 11.3599 9.92249 11.0442 9.26197 10.533L7.59375 12.0515C8.40973 12.7627 9.38587 13.2656 10.4387 13.5173C11.4914 13.7689 12.5895 13.7617 13.6389 13.4963C14.6883 13.2308 15.6577 12.7151 16.4643 11.9933C17.2709 11.2714 17.8905 10.3648 18.2703 9.3512C18.65 8.33756 18.7785 7.24701 18.6447 6.17287C18.511 5.09874 18.1189 4.073 17.5022 3.18344C16.8855 2.29388 16.0624 1.56699 15.1035 1.06497C14.1445 0.562942 13.0782 0.300737 11.9957 0.300789Z" fill="white"/>
<path d="M11.9349 4.76953C11.5909 4.76915 11.2514 4.84867 10.9434 5.00183L13.1411 7.00301L10.9434 9.00419C11.245 9.15367 11.5765 9.23304 11.9131 9.23637C12.2497 9.23971 12.5827 9.16691 12.8872 9.02344C13.1917 8.87996 13.4598 8.66951 13.6715 8.40782C13.8832 8.14612 14.0331 7.83996 14.1098 7.51221C14.1866 7.18446 14.1882 6.8436 14.1147 6.51512C14.0412 6.18663 13.8943 5.87901 13.6852 5.61526C13.476 5.35151 13.21 5.13845 12.9069 4.99199C12.6038 4.84554 12.2715 4.76949 11.9349 4.76953Z" fill="white"/>
</svg>
