<svg width="30" height="32" viewBox="0 0 30 32" fill="none" xmlns="http://www.w3.org/2000/svg">
<path d="M14.5558 31.8362C12.317 31.8362 10.318 31.4707 8.55896 30.7396C6.82272 30.0086 5.34921 28.992 4.13842 27.6898C2.92762 26.3876 2.00239 24.8684 1.36273 23.1322C0.74591 21.3959 0.4375 19.5226 0.4375 17.5123C0.4375 15.1135 0.768755 12.909 1.43127 10.8986C2.11662 8.88821 3.11039 7.14056 4.41256 5.65562C5.73758 4.17068 7.35959 3.017 9.27858 2.19458C11.1976 1.37215 13.4136 0.960937 15.9265 0.960937C18.074 0.960937 19.9815 1.32646 21.6492 2.05751C23.3169 2.76571 24.7219 3.77089 25.8642 5.07307C27.0064 6.3524 27.8745 7.84876 28.4685 9.56214C29.0625 11.2527 29.3595 13.0803 29.3595 15.045C29.3595 15.9588 29.2795 16.9526 29.1196 18.0263C28.9825 19.1 28.697 20.1166 28.2629 21.0761C27.8517 22.0356 27.2349 22.8238 26.4125 23.4406C25.59 24.0346 24.5049 24.3315 23.157 24.3315C22.0605 24.3315 21.1695 24.0574 20.4841 23.5091C19.7988 22.9608 19.3419 22.2526 19.1134 21.3845C18.6565 22.1156 18.1425 22.6867 17.5714 23.0979C17.0231 23.4863 16.4291 23.7604 15.7895 23.9203C15.1726 24.0802 14.5101 24.1602 13.8019 24.1602C12.3855 24.1374 11.2433 23.7833 10.3751 23.0979C9.50703 22.3897 8.87879 21.5102 8.49042 20.4593C8.10205 19.3856 7.90787 18.3233 7.90787 17.2724C7.93072 16.1987 8.09063 15.1592 8.38762 14.154C8.68461 13.1488 9.13009 12.2465 9.72406 11.4469C10.3409 10.6244 11.0948 9.97336 11.9857 9.49361C12.8767 9.01386 13.9161 8.78541 15.1041 8.80825C15.7209 8.80825 16.3035 8.88821 16.8518 9.04813C17.4 9.20804 17.8912 9.47076 18.3253 9.83628C18.7822 10.2018 19.1363 10.6816 19.3876 11.2755L20.3128 9.49361L22.1975 9.69922C21.9919 10.9557 21.8092 12.2236 21.6492 13.5029C21.4893 14.7594 21.3523 16.0159 21.238 17.2724C21.1923 17.9577 21.1809 18.6545 21.2038 19.3627C21.2494 20.0709 21.4208 20.6649 21.7178 21.1446C22.0376 21.6244 22.5745 21.8643 23.3284 21.8643C24.0594 21.8643 24.642 21.6244 25.076 21.1446C25.5101 20.6649 25.8299 20.0709 26.0355 19.3627C26.264 18.6545 26.4125 17.9463 26.481 17.2381C26.5495 16.5071 26.5838 15.8903 26.5838 15.3877C26.5838 13.7657 26.3553 12.2579 25.8984 10.8643C25.4644 9.44792 24.8019 8.21428 23.9109 7.1634C23.0199 6.08968 21.912 5.25583 20.5869 4.66185C19.2619 4.04504 17.7084 3.73663 15.9265 3.73663C13.8705 3.73663 12.0657 4.09073 10.5122 4.79893C8.98159 5.48428 7.69084 6.4552 6.63996 7.71169C5.61193 8.94532 4.8352 10.3846 4.30976 12.0294C3.78432 13.6514 3.5216 15.3877 3.5216 17.2381C3.5216 19.4541 3.96708 21.4416 4.85804 23.2007C5.77185 24.9598 7.07402 26.3419 8.76457 27.3471C10.478 28.3523 12.5226 28.8549 14.8985 28.8549C15.4468 28.8549 15.8923 28.8435 16.2349 28.8206C16.6005 28.7978 16.9431 28.7635 17.263 28.7178C17.6056 28.6721 18.0169 28.6036 18.4966 28.5122L18.7365 31.3907C17.9597 31.5506 17.2744 31.6648 16.6804 31.7334C16.0864 31.8019 15.3782 31.8362 14.5558 31.8362ZM14.2474 21.6929C15.1841 21.6929 15.9608 21.4645 16.5776 21.0076C17.2173 20.5507 17.7084 19.9453 18.0511 19.1914C18.4166 18.4146 18.6451 17.558 18.7365 16.6213C18.8279 15.7532 18.7479 14.9308 18.4966 14.154C18.2682 13.3544 17.8684 12.7034 17.2972 12.2008C16.749 11.6753 16.0065 11.4126 15.0698 11.4126C14.0418 11.4126 13.2079 11.7096 12.5683 12.3036C11.9286 12.8975 11.4603 13.64 11.1633 14.531C10.8663 15.4219 10.7178 16.3129 10.7178 17.2039C10.7178 17.5694 10.7635 18.0149 10.8549 18.5403C10.9463 19.0429 11.1062 19.5341 11.3346 20.0138C11.5859 20.4936 11.94 20.8933 12.3969 21.2132C12.8767 21.533 13.4935 21.6929 14.2474 21.6929Z" fill="#0A44D6"/>
</svg>
