<svg width="154" height="40" viewBox="0 0 154 40" fill="none" xmlns="http://www.w3.org/2000/svg">
<path d="M60.2934 18.6781C59.8991 17.853 59.2752 17.1591 58.4965 16.6797C57.7215 16.2063 56.8045 15.9693 55.7457 15.9688C54.6869 15.9683 53.7475 16.1766 52.9277 16.5938C52.1384 16.9846 51.473 17.5866 51.0051 18.3328C50.542 19.0745 50.3105 19.9357 50.3105 20.9164C50.3105 21.9086 50.5559 22.7781 51.0465 23.525C51.5482 24.2819 52.2481 24.8864 53.0699 25.2727C53.9288 25.6894 54.9098 25.8977 56.0129 25.8977C56.872 25.8976 57.7261 25.768 58.5465 25.5133C59.3086 25.2911 60.0248 24.9345 60.6613 24.4602V22.8898C60.0497 23.3178 59.3719 23.6424 58.6551 23.8508C57.9345 24.0738 57.1851 24.1894 56.4309 24.1938C55.6283 24.1938 54.9342 24.0573 54.3488 23.7844C53.92 23.5952 53.541 23.3087 53.2419 22.9477C52.9428 22.5868 52.7317 22.1612 52.6254 21.7047H60.9285C60.9285 20.5453 60.7168 19.5365 60.2934 18.6781ZM54.0316 18.0594C54.5051 17.8031 55.0595 17.6748 55.6949 17.6742C56.2975 17.6742 56.8184 17.7943 57.2574 18.0344C57.697 18.2729 58.0617 18.6284 58.3113 19.0617C58.4877 19.3678 58.6112 19.7014 58.677 20.0484H52.5832C52.6437 19.7291 52.757 19.422 52.9184 19.1398C53.1802 18.682 53.5661 18.3074 54.0316 18.0594Z" fill="#04AC36"/>
<path d="M71.8637 16.2031H69.4559L66.6559 19.5055L63.8707 16.2031H61.3793L65.2191 20.8078L61.1113 25.668H63.5363L66.5738 22.0805L69.6395 25.668H72.1316L67.9887 20.7906L71.8637 16.2031Z" fill="#04AC36"/>
<path d="M75.7945 18.0678C76.2961 17.8074 76.8815 17.6772 77.5508 17.6772C78.3868 17.6772 79.1001 17.878 79.6907 18.2795C79.9782 18.4708 80.2251 18.7169 80.4173 19.0038C80.6095 19.2907 80.7431 19.6127 80.811 19.9514H82.9985C82.8977 19.1832 82.579 18.4599 82.079 17.8678C81.5579 17.2567 80.8985 16.778 80.1563 16.4709C79.3298 16.1277 78.4423 15.957 77.5477 15.9694C76.4539 15.9694 75.4922 16.1777 74.6625 16.5944C73.8633 16.9844 73.1888 17.5896 72.7148 18.342C72.2461 19.0889 72.0117 19.9527 72.0117 20.9334C72.0117 21.9142 72.2461 22.7783 72.7148 23.5256C73.1888 24.2781 73.8633 24.8834 74.6625 25.2733C75.4932 25.69 76.4549 25.8983 77.5477 25.8983C78.4423 25.9107 79.3298 25.74 80.1563 25.3967C80.8977 25.0909 81.5571 24.6138 82.079 24.0045C82.5766 23.4179 82.8954 22.7012 82.9993 21.9389H80.8118C80.6743 22.6097 80.2782 23.1992 79.7087 23.5795C79.1173 23.992 78.3985 24.1983 77.5516 24.1983C76.8828 24.1983 76.2973 24.0681 75.7953 23.8077C75.3039 23.5559 74.8993 23.1627 74.6336 22.6788C74.3602 22.1892 74.2234 21.6095 74.2234 20.9397C74.2234 20.26 74.3602 19.6775 74.6336 19.192C74.9009 18.7108 75.3049 18.3196 75.7945 18.0678Z" fill="#04AC36"/>
<path d="M92.8672 16.5055C92.2422 16.1492 91.4844 15.9709 90.593 15.9703C89.8312 15.9598 89.0805 16.1532 88.4188 16.5305C87.7602 16.9161 87.2133 17.4657 86.8305 18.1258V12.793H84.6562V25.6695H86.8297V21.0539C86.8297 20.3961 86.9555 19.8219 87.2063 19.3312C87.4445 18.8543 87.8164 18.4565 88.2758 18.1859C88.7664 17.9058 89.325 17.7643 89.8898 17.7766C90.7812 17.7766 91.4586 18.0302 91.9211 18.5375C92.3836 19.0448 92.6148 19.7945 92.6148 20.7867V25.6695H94.7883V20.4352C94.7883 19.4977 94.6242 18.698 94.2953 18.0359C93.9852 17.3928 93.4875 16.8591 92.8672 16.5055Z" fill="#04AC36"/>
<path d="M105.793 16.2035L105.55 18.5308C105.507 18.459 105.464 18.3879 105.418 18.3183C104.953 17.6074 104.329 17.0148 103.594 16.5879C102.864 16.1723 102.036 15.9587 101.195 15.9691C100.269 15.9691 99.4496 16.1775 98.7371 16.5941C98.0285 17.0067 97.4488 17.609 97.0645 18.3332C96.6629 19.0748 96.4621 19.9415 96.4629 20.9332C96.4629 21.9144 96.6637 22.7785 97.0645 23.5254C97.4473 24.2531 98.027 24.8586 98.7371 25.273C99.4496 25.6897 100.269 25.898 101.195 25.898C102.036 25.9084 102.864 25.6948 103.594 25.2793C104.329 24.8525 104.951 24.2562 105.409 23.5402C105.457 23.4675 105.502 23.3925 105.547 23.3168L105.793 25.6644H108.034L107.532 20.9371L108.034 16.205L105.793 16.2035ZM104.748 22.616C104.375 23.0825 103.911 23.4693 103.386 23.7535C102.871 24.027 102.296 24.1677 101.714 24.1629C101.162 24.1735 100.618 24.0318 100.141 23.7535C99.684 23.4804 99.3113 23.0868 99.0629 22.616C98.8043 22.0937 98.6699 21.519 98.6699 20.9363C98.6699 20.3536 98.8043 19.7789 99.0629 19.2566C99.3106 18.7858 99.684 18.3925 100.141 18.1199C100.618 17.8412 101.161 17.6993 101.714 17.7097C102.296 17.7051 102.871 17.8461 103.386 18.1199C103.911 18.4034 104.375 18.79 104.748 19.2566C105.154 19.7603 105.474 20.3283 105.693 20.9371C105.474 21.5455 105.154 22.113 104.748 22.616Z" fill="#04AC36"/>
<path d="M118.451 16.5043C117.826 16.1481 117.068 15.9696 116.177 15.9692C115.415 15.9585 114.664 16.1519 114.003 16.5293C113.344 16.9149 112.797 17.4646 112.414 18.1246C112.346 18.2387 112.285 18.359 112.225 18.4785L111.843 16.2035H109.67L110.238 19.2973V25.6684H112.412V21.0528C112.412 20.395 112.537 19.8207 112.788 19.3301C113.027 18.8532 113.399 18.4555 113.858 18.1848C114.349 17.9046 114.907 17.7631 115.472 17.7754C116.364 17.7754 117.041 18.029 117.504 18.5364C117.966 19.0436 118.197 19.7934 118.198 20.7856V25.6684H120.371V20.434C120.371 19.4965 120.207 18.6967 119.879 18.0348C119.569 17.3917 119.071 16.858 118.451 16.5043Z" fill="#04AC36"/>
<path d="M131.141 18.3436C131.096 18.2796 131.049 18.2155 130.999 18.1515C130.323 17.2919 129.42 16.6401 128.391 16.271C127.814 16.0658 127.205 15.9638 126.594 15.9694C125.778 15.9558 124.972 16.1484 124.25 16.5296C123.57 16.8906 123.003 17.4311 122.609 18.0921C122.209 18.7608 122.009 19.5468 122.008 20.4499C122.007 21.353 122.208 22.139 122.609 22.8077C123.003 23.4686 123.57 24.009 124.25 24.3702C124.972 24.7514 125.778 24.944 126.594 24.9304C127.346 24.9401 128.092 24.789 128.781 24.4874C129.41 24.2131 129.986 23.8314 130.484 23.3593C130.725 23.1277 130.946 22.8758 131.144 22.6061V23.3421C131.144 24.502 130.809 25.3939 130.141 26.0179C129.472 26.6419 128.503 26.9536 127.235 26.953C126.498 26.9514 125.766 26.8413 125.061 26.6265C124.293 26.3871 123.577 26.0043 122.952 25.4983V27.3038C124.242 28.212 125.788 28.6865 127.366 28.6585C128.526 28.6585 129.552 28.4522 130.443 28.0397C131.314 27.6471 132.048 27.0038 132.552 26.1921C133.066 25.3723 133.322 24.3551 133.322 23.1405V16.2038H131.141V18.3436ZM129.445 22.6405C128.805 23.0897 128.043 23.3291 127.263 23.3257C126.616 23.3257 126.064 23.203 125.607 22.9577C125.166 22.7282 124.802 22.3732 124.562 21.9374C124.317 21.4815 124.193 20.9704 124.202 20.453C124.191 19.9287 124.315 19.4104 124.562 18.9476C124.802 18.5122 125.166 18.1572 125.607 17.9272C126.064 17.6829 126.616 17.5606 127.263 17.5601C128.042 17.5564 128.804 17.7929 129.445 18.2374C130.108 18.6884 130.702 19.427 131.225 20.453C130.703 21.453 130.11 22.1827 129.447 22.6421L129.445 22.6405Z" fill="#04AC36"/>
<path d="M141.159 24.1961C140.356 24.1961 139.662 24.0597 139.077 23.7867C138.647 23.5975 138.267 23.3109 137.968 22.9495C137.668 22.5881 137.457 22.1619 137.351 21.7047H145.657C145.657 20.5453 145.445 19.5365 145.022 18.6781C144.627 17.853 144.004 17.1591 143.225 16.6797C142.45 16.2063 141.533 15.9693 140.474 15.9688C139.416 15.9683 138.476 16.1766 137.656 16.5938C136.867 16.9846 136.202 17.5866 135.734 18.3328C135.27 19.0745 135.039 19.9357 135.039 20.9164C135.039 21.9086 135.284 22.7781 135.775 23.525C136.277 24.2819 136.977 24.8864 137.798 25.2727C138.657 25.6894 139.637 25.8977 140.741 25.8977C141.601 25.8976 142.455 25.768 143.275 25.5133C144.037 25.2909 144.754 24.9343 145.391 24.4602V22.8898C144.779 23.3177 144.101 23.6423 143.384 23.8508C142.663 24.0748 141.913 24.1911 141.159 24.1961ZM138.759 18.0594C139.233 17.8031 139.787 17.6748 140.423 17.6742C141.025 17.6742 141.546 17.7943 141.986 18.0344C142.426 18.2729 142.79 18.6284 143.04 19.0617C143.216 19.3678 143.34 19.7014 143.405 20.0484H137.312C137.371 19.7281 137.484 19.42 137.645 19.1367C137.907 18.6798 138.294 18.3063 138.759 18.0594Z" fill="#04AC36"/>
<path d="M8.25 32.1664H14.3063L27.6711 19.9984L14.3039 7.83203L8.25 7.83359L21.6156 19.9992L8.25 32.1664Z" fill="#04AC36"/>
<path d="M42.6391 15.8867H36.5836L27.6719 23.9984L36.5813 32.1102H42.6367L33.7273 23.9984L42.6391 15.8867Z" fill="#04AC36"/>
</svg>
