<svg width="11" height="20" viewBox="0 0 11 20" fill="none" xmlns="http://www.w3.org/2000/svg">
<path d="M7.60296 0.760437C6.06227 0.585063 4.50665 0.585063 2.96596 0.760437L1.37096 0.942436C1.25652 0.955588 1.15013 1.00785 1.06977 1.09039C0.989421 1.17293 0.940033 1.28068 0.929958 1.39544L0.806957 2.77744C0.600806 5.10054 0.600806 7.43734 0.806957 9.76044L0.929958 11.1424C0.940956 11.2669 0.99818 11.3828 1.09036 11.4672C1.18253 11.5516 1.30298 11.5984 1.42796 11.5984H3.49896V19.0004C3.49914 19.1039 3.53142 19.2048 3.59135 19.2891C3.65128 19.3735 3.7359 19.4372 3.83355 19.4714C3.93119 19.5056 4.03705 19.5087 4.13653 19.4802C4.23601 19.4518 4.32421 19.3931 4.38896 19.3124L4.77996 18.8224C7.10957 15.9061 8.9647 12.6407 10.277 9.14644L10.467 8.63944C10.4954 8.56378 10.5051 8.48235 10.4952 8.40213C10.4853 8.32191 10.4561 8.24529 10.4101 8.17883C10.364 8.11237 10.3026 8.05806 10.231 8.02055C10.1594 7.98303 10.0798 7.96344 9.99896 7.96344H7.28596L9.61096 1.61144C9.63703 1.54036 9.64662 1.46428 9.63901 1.38896C9.63139 1.31363 9.60677 1.24102 9.567 1.17659C9.52723 1.11217 9.47335 1.05762 9.40942 1.01706C9.34549 0.976494 9.27318 0.950979 9.19796 0.942436L7.60296 0.760437Z" fill="#0A44D6"/>
</svg>
