<svg width="42" height="50" viewBox="0 0 42 50" fill="none" xmlns="http://www.w3.org/2000/svg">
<path fill-rule="evenodd" clip-rule="evenodd" d="M21.332 36.0127C27.5452 36.0127 32.582 30.9759 32.582 24.7627C32.582 18.5495 27.5452 13.5127 21.332 13.5127C15.1188 13.5127 10.082 18.5495 10.082 24.7627C10.082 30.9759 15.1188 36.0127 21.332 36.0127ZM28.2829 22.3385C29.0151 21.6063 29.0151 20.4191 28.2829 19.6869C27.5506 18.9546 26.3634 18.9546 25.6312 19.6869L19.2811 26.037L16.832 24.2002C16.0036 23.5789 14.8284 23.7468 14.207 24.5752C13.5857 25.4036 13.7536 26.5789 14.582 27.2002L18.332 30.0127L19.633 30.9884L20.7829 29.8385L28.2829 22.3385Z" fill="#04AC36"/>
<path d="M21.1499 46.9014L11.3289 40.4515C6.94943 37.5753 4.15441 32.828 3.76422 27.6031L2.30348 8.04295L16.2545 3.82385C19.4398 2.86054 22.8389 2.86054 26.0242 3.82385L39.9939 8.04856L38.7975 27.3609C38.4654 32.7211 35.6018 37.6032 31.0854 40.509L21.1499 46.9014Z" stroke="#04AC36" stroke-width="3.75"/>
</svg>
