<svg width="46" height="46" viewBox="0 0 46 46" fill="none" xmlns="http://www.w3.org/2000/svg">
<rect x="2.375" y="2.375" width="30" height="41.25" rx="1.875" stroke="#04AC36" stroke-width="3.75"/>
<path d="M38 2.375V43.625" stroke="#04AC36" stroke-width="3.75" stroke-linecap="round"/>
<path d="M43.625 2.375V43.625" stroke="#04AC36" stroke-width="3.75" stroke-linecap="round"/>
<path fill-rule="evenodd" clip-rule="evenodd" d="M17.375 39.875C23.5882 39.875 28.625 34.8382 28.625 28.625C28.625 22.4118 23.5882 17.375 17.375 17.375C11.1618 17.375 6.125 22.4118 6.125 28.625C6.125 34.8382 11.1618 39.875 17.375 39.875ZM24.3258 26.2008C25.0581 25.4686 25.0581 24.2814 24.3258 23.5492C23.5936 22.8169 22.4064 22.8169 21.6742 23.5492L15.3241 29.8993L12.875 28.0625C12.0466 27.4412 10.8713 27.6091 10.25 28.4375C9.62868 29.2659 9.79657 30.4412 10.625 31.0625L14.375 33.875L15.6759 34.8507L16.8258 33.7008L24.3258 26.2008Z" fill="#04AC36"/>
</svg>
