<svg width="53" height="42" viewBox="0 0 53 42" fill="none" xmlns="http://www.w3.org/2000/svg">
<rect x="6.04297" y="5.7627" width="41.25" height="30" rx="1.875" stroke="#04AC36" stroke-width="3.75"/>
<mask id="path-2-inside-1_2010_10127" fill="white">
<path d="M15.4185 33.905C15.4185 32.9224 15.2249 31.9494 14.8489 31.0415C14.4729 30.1337 13.9217 29.3088 13.2269 28.614C12.532 27.9192 11.7071 27.368 10.7993 26.9919C9.89146 26.6159 8.91845 26.4224 7.93581 26.4224L7.93581 30.2285C8.41862 30.2285 8.8967 30.3236 9.34275 30.5084C9.78881 30.6931 10.1941 30.964 10.5355 31.3053C10.8769 31.6467 11.1477 32.052 11.3325 32.4981C11.5172 32.9442 11.6123 33.4222 11.6123 33.905H15.4185Z"/>
</mask>
<path d="M15.4185 33.905C15.4185 32.9224 15.2249 31.9494 14.8489 31.0415C14.4729 30.1337 13.9217 29.3088 13.2269 28.614C12.532 27.9192 11.7071 27.368 10.7993 26.9919C9.89146 26.6159 8.91845 26.4224 7.93581 26.4224L7.93581 30.2285C8.41862 30.2285 8.8967 30.3236 9.34275 30.5084C9.78881 30.6931 10.1941 30.964 10.5355 31.3053C10.8769 31.6467 11.1477 32.052 11.3325 32.4981C11.5172 32.9442 11.6123 33.4222 11.6123 33.905H15.4185Z" stroke="#04AC36" stroke-width="7.5" mask="url(#path-2-inside-1_2010_10127)"/>
<mask id="path-3-inside-2_2010_10127" fill="white">
<path d="M7.90013 15.1031C8.88277 15.1031 9.85579 14.9095 10.7636 14.5335C11.6715 14.1574 12.4964 13.6063 13.1912 12.9114C13.886 12.2166 14.4372 11.3917 14.8132 10.4839C15.1893 9.57603 15.3828 8.60302 15.3828 7.62038L11.5767 7.62038C11.5767 8.10319 11.4816 8.58127 11.2968 9.02732C11.112 9.47338 10.8412 9.87868 10.4998 10.2201C10.1584 10.5615 9.75313 10.8323 9.30708 11.017C8.86102 11.2018 8.38294 11.2969 7.90013 11.2969L7.90013 15.1031Z"/>
</mask>
<path d="M7.90013 15.1031C8.88277 15.1031 9.85579 14.9095 10.7636 14.5335C11.6715 14.1574 12.4964 13.6063 13.1912 12.9114C13.886 12.2166 14.4372 11.3917 14.8132 10.4839C15.1893 9.57603 15.3828 8.60302 15.3828 7.62038L11.5767 7.62038C11.5767 8.10319 11.4816 8.58127 11.2968 9.02732C11.112 9.47338 10.8412 9.87868 10.4998 10.2201C10.1584 10.5615 9.75313 10.8323 9.30708 11.017C8.86102 11.2018 8.38294 11.2969 7.90013 11.2969L7.90013 15.1031Z" stroke="#04AC36" stroke-width="7.5" mask="url(#path-3-inside-2_2010_10127)"/>
<circle cx="26.668" cy="20.7627" r="5.625" transform="rotate(90 26.668 20.7627)" fill="#04AC36"/>
<mask id="path-5-inside-3_2010_10127" fill="white">
<path d="M37.9174 7.62035C37.9174 8.60298 38.111 9.576 38.487 10.4838C38.8631 11.3917 39.4142 12.2166 40.1091 12.9114C40.8039 13.6062 41.6288 14.1574 42.5366 14.5334C43.4445 14.9095 44.4175 15.103 45.4001 15.103L45.4001 11.2969C44.9173 11.2969 44.4392 11.2018 43.9932 11.017C43.5471 10.8323 43.1418 10.5614 42.8004 10.22C42.459 9.87865 42.1882 9.47335 42.0035 9.02729C41.8187 8.58123 41.7236 8.10315 41.7236 7.62035H37.9174Z"/>
</mask>
<path d="M37.9174 7.62035C37.9174 8.60298 38.111 9.576 38.487 10.4838C38.8631 11.3917 39.4142 12.2166 40.1091 12.9114C40.8039 13.6062 41.6288 14.1574 42.5366 14.5334C43.4445 14.9095 44.4175 15.103 45.4001 15.103L45.4001 11.2969C44.9173 11.2969 44.4392 11.2018 43.9932 11.017C43.5471 10.8323 43.1418 10.5614 42.8004 10.22C42.459 9.87865 42.1882 9.47335 42.0035 9.02729C41.8187 8.58123 41.7236 8.10315 41.7236 7.62035H37.9174Z" stroke="#04AC36" stroke-width="7.5" mask="url(#path-5-inside-3_2010_10127)"/>
<mask id="path-6-inside-4_2010_10127" fill="white">
<path d="M45.4007 26.3877C44.418 26.3877 43.445 26.5812 42.5372 26.9572C41.6293 27.3333 40.8044 27.8845 40.1096 28.5793C39.4148 29.2741 38.8636 30.099 38.4876 31.0068C38.1115 31.9147 37.918 32.8877 37.918 33.8703L41.7241 33.8703C41.7241 33.3875 41.8192 32.9095 42.004 32.4634C42.1887 32.0173 42.4596 31.612 42.801 31.2706C43.1424 30.9293 43.5476 30.6584 43.9937 30.4737C44.4398 30.2889 44.9178 30.1938 45.4007 30.1938V26.3877Z"/>
</mask>
<path d="M45.4007 26.3877C44.418 26.3877 43.445 26.5812 42.5372 26.9572C41.6293 27.3333 40.8044 27.8845 40.1096 28.5793C39.4148 29.2741 38.8636 30.099 38.4876 31.0068C38.1115 31.9147 37.918 32.8877 37.918 33.8703L41.7241 33.8703C41.7241 33.3875 41.8192 32.9095 42.004 32.4634C42.1887 32.0173 42.4596 31.612 42.801 31.2706C43.1424 30.9293 43.5476 30.6584 43.9937 30.4737C44.4398 30.2889 44.9178 30.1938 45.4007 30.1938V26.3877Z" stroke="#04AC36" stroke-width="7.5" mask="url(#path-6-inside-4_2010_10127)"/>
</svg>
