<svg width="49" height="17" viewBox="0 0 49 17" fill="none" xmlns="http://www.w3.org/2000/svg">
<path d="M35.3418 15.9767V0.5H37.7717L45.8493 13.3936V0.5H47.7538V15.9767H45.3677L37.2463 3.12687V15.9767H35.3418Z" fill="#04AC36" stroke="#04AC36" stroke-width="0.6"/>
<path d="M18.9922 15.9767L24.7494 0.5H27.4857L33.2211 15.9767H31.1634L29.9375 12.6493H22.2758L21.0499 15.9767H18.9922ZM22.9106 10.9199H29.3027L26.1066 2.16369L22.9106 10.9199Z" fill="#04AC36" stroke="#04AC36" stroke-width="0.6"/>
<path d="M6.3125 15.9767V0.5H11.7414C12.5148 0.5 13.2153 0.565672 13.8429 0.697015C14.4704 0.813765 15.0104 1.01808 15.4628 1.30995C15.9298 1.60183 16.2873 1.99586 16.5354 2.49204C16.7835 2.98823 16.9076 3.61576 16.9076 4.37464C16.9076 5.1627 16.7251 5.8632 16.3603 6.47613C16.01 7.08907 15.4628 7.54148 14.7185 7.83335C15.7109 8.00848 16.4551 8.4171 16.9513 9.05923C17.4475 9.68676 17.6956 10.5259 17.6956 11.5766C17.6956 12.4377 17.5351 13.1528 17.214 13.7219C16.893 14.2911 16.4478 14.7435 15.8787 15.0791C15.3241 15.4002 14.682 15.6337 13.9523 15.7796C13.2226 15.911 12.4492 15.9767 11.6319 15.9767H6.3125ZM8.21698 14.2473H11.5662C12.0187 14.2473 12.4856 14.2254 12.9672 14.1816C13.4634 14.1233 13.9231 14.0138 14.3464 13.8533C14.7696 13.6781 15.1125 13.4082 15.3752 13.0433C15.6379 12.6785 15.7692 12.1896 15.7692 11.5766C15.7692 11.0513 15.6671 10.6208 15.4628 10.2851C15.2731 9.94944 15.0104 9.68676 14.6747 9.49704C14.3536 9.30732 13.9815 9.17598 13.5583 9.10301C13.1351 9.03004 12.7046 8.99355 12.2667 8.99355H8.21698V14.2473ZM8.21698 7.28609H11.1941C11.7341 7.28609 12.2376 7.24231 12.7046 7.15474C13.1716 7.05259 13.5802 6.89206 13.9304 6.67315C14.2807 6.45424 14.5507 6.16967 14.7404 5.81942C14.9447 5.46917 15.0468 5.03135 15.0468 4.50598C15.0614 3.83467 14.9155 3.33848 14.609 3.01742C14.3026 2.69636 13.8939 2.48475 13.3832 2.38259C12.887 2.28044 12.347 2.22936 11.7633 2.22936H8.21698V7.28609Z" fill="#04AC36" stroke="#04AC36" stroke-width="0.6"/>
<path d="M0.625 15.9767V0.5H2.52948V15.9767H0.625Z" fill="#04AC36" stroke="#04AC36" stroke-width="0.6"/>
</svg>
