<svg width="60" height="61" viewBox="0 0 60 61" fill="none" xmlns="http://www.w3.org/2000/svg">
<rect x="28.2324" y="14.8525" width="5.3033" height="3.75" rx="1.875" transform="rotate(-90 28.2324 14.8525)" fill="#04AC36"/>
<rect x="40.6074" y="20.0295" width="5.3033" height="3.75" rx="1.875" transform="rotate(-40 40.6074 20.0295)" fill="#04AC36"/>
<rect x="16.2422" y="22.6189" width="5.3033" height="3.75" rx="1.875" transform="rotate(-140 16.2422 22.6189)" fill="#04AC36"/>
<path d="M28.554 34.1947C26.5497 33.0203 26.3251 30.2099 28.1175 28.7322L34.5996 23.3878C34.6848 23.3176 34.8049 23.308 34.9002 23.3638C34.9955 23.4197 35.0458 23.5291 35.0262 23.6378L33.5326 31.9051C33.1197 34.1911 30.5582 35.369 28.554 34.1947Z" fill="#04AC36" stroke="#04AC36" stroke-width="3.75"/>
<rect x="10.5547" y="36.5393" width="5.3033" height="3.75" rx="1.875" transform="rotate(-25 10.5547 36.5393)" fill="#04AC36"/>
<rect x="45.6367" y="34.2981" width="5.3033" height="3.75" rx="1.875" transform="rotate(25 45.6367 34.2981)" fill="#04AC36"/>
<mask id="path-7-inside-1_2010_11070" fill="white">
<path d="M43.7021 44.4648C44.4189 45.1816 45.588 45.1863 46.2402 44.4103C48.532 41.6831 50.1068 38.4143 50.8056 34.9012C51.6241 30.7862 51.204 26.521 49.5984 22.6448C47.9929 18.7685 45.2739 15.4555 41.7854 13.1246C38.2969 10.7936 34.1956 9.54949 30 9.54949C25.8044 9.54949 21.7031 10.7936 18.2146 13.1246C14.7261 15.4555 12.0071 18.7685 10.4016 22.6448C8.79598 26.521 8.37588 30.7862 9.1944 34.9012C9.8932 38.4143 11.468 41.6831 13.7598 44.4103C14.412 45.1863 15.5811 45.1816 16.2979 44.4648C17.0147 43.748 17.0061 42.5913 16.368 41.8035C14.5823 39.5987 13.3519 36.9857 12.7949 34.185C12.118 30.7822 12.4654 27.255 13.7931 24.0496C15.1208 20.8442 17.3693 18.1044 20.2541 16.1769C23.1389 14.2493 26.5305 13.2205 30 13.2205C33.4695 13.2205 36.8611 14.2493 39.7459 16.1769C42.6307 18.1044 44.8792 20.8442 46.2069 24.0496C47.5346 27.255 47.882 30.7822 47.2051 34.185C46.6481 36.9857 45.4177 39.5987 43.632 41.8035C42.9939 42.5913 42.9853 43.748 43.7021 44.4648Z"/>
</mask>
<path d="M43.7021 44.4648C44.4189 45.1816 45.588 45.1863 46.2402 44.4103C48.532 41.6831 50.1068 38.4143 50.8056 34.9012C51.6241 30.7862 51.204 26.521 49.5984 22.6448C47.9929 18.7685 45.2739 15.4555 41.7854 13.1246C38.2969 10.7936 34.1956 9.54949 30 9.54949C25.8044 9.54949 21.7031 10.7936 18.2146 13.1246C14.7261 15.4555 12.0071 18.7685 10.4016 22.6448C8.79598 26.521 8.37588 30.7862 9.1944 34.9012C9.8932 38.4143 11.468 41.6831 13.7598 44.4103C14.412 45.1863 15.5811 45.1816 16.2979 44.4648C17.0147 43.748 17.0061 42.5913 16.368 41.8035C14.5823 39.5987 13.3519 36.9857 12.7949 34.185C12.118 30.7822 12.4654 27.255 13.7931 24.0496C15.1208 20.8442 17.3693 18.1044 20.2541 16.1769C23.1389 14.2493 26.5305 13.2205 30 13.2205C33.4695 13.2205 36.8611 14.2493 39.7459 16.1769C42.6307 18.1044 44.8792 20.8442 46.2069 24.0496C47.5346 27.255 47.882 30.7822 47.2051 34.185C46.6481 36.9857 45.4177 39.5987 43.632 41.8035C42.9939 42.5913 42.9853 43.748 43.7021 44.4648Z" stroke="#04AC36" stroke-width="7.5" mask="url(#path-7-inside-1_2010_11070)"/>
</svg>
