<svg width="108" height="24" viewBox="0 0 108 24" fill="none" xmlns="http://www.w3.org/2000/svg">
<path d="M0.607422 23.5591H6.33846L18.9873 11.9995L6.33699 0.441406L0.607422 0.44289L13.257 12.0002L0.607422 23.5591Z" fill="#111111"/>
<path d="M31.6296 23.5607L21.0939 13.9219L18.2266 16.5425L25.903 23.5607H31.6296Z" fill="#111111"/>
<path d="M10.5469 0.441406L14.7614 4.2941H26.9843C27.4942 4.2941 27.9832 4.49741 28.3437 4.85929C28.7042 5.22118 28.9068 5.712 28.9068 6.22379C28.9068 6.7348 28.7048 7.22495 28.3453 7.58671C27.9857 7.94847 27.4979 8.1523 26.9888 8.15348L18.9893 8.15941L23.1942 12.0002H26.9843C28.5112 12.0002 29.9755 11.3914 31.0551 10.3077C32.1347 9.22399 32.7413 7.75416 32.7413 6.22156C32.7414 5.46263 32.5925 4.71112 32.3033 4.00993C32.014 3.30875 31.59 2.67162 31.0554 2.13494C30.5208 1.59827 29.8861 1.17255 29.1876 0.882094C28.4891 0.591642 27.7404 0.442148 26.9843 0.442148L10.5469 0.441406Z" fill="#111111"/>
<path d="M55.8688 4.25391H52.614L48.2109 9.82848L43.7709 4.25391H40.414L46.48 11.6313L39.9023 19.6639H43.1572L48.1096 13.4266L53.0436 19.6639H56.3805L49.8516 11.6313L55.8688 4.25391Z" fill="#111111"/>
<path d="M64.1054 4.25391L56.7344 19.6639H59.618L61.2624 16.1296H70.3163L71.9659 19.6639H74.8495L67.4807 4.25391H64.1054ZM62.3094 13.8905L65.7942 6.40254L69.2789 13.8905H62.3094Z" fill="#111111"/>
<path d="M87.5866 12.9145C88.3985 12.5241 89.0329 11.9828 89.4898 11.2906C89.9468 10.5984 90.1755 9.80052 90.176 8.89703C90.176 7.96534 89.9473 7.15388 89.4898 6.46266C89.0324 5.77143 88.398 5.23038 87.5866 4.83949C86.7743 4.4491 85.8291 4.25391 84.7511 4.25391H76.3789V19.6639H79.0814V13.5038H82.1698L87.3315 19.6639H90.5657L85.333 13.4778C86.1129 13.4349 86.8777 13.2438 87.5866 12.9145ZM79.0836 6.59625H84.5078C85.4084 6.59625 86.1214 6.79813 86.6469 7.20188C87.1723 7.60563 87.4351 8.17068 87.4351 8.89703C87.4351 9.60953 87.1723 10.1711 86.6469 10.5818C86.1214 10.9925 85.4084 11.1981 84.5078 11.1986H79.0836V6.59625Z" fill="#111111"/>
<path d="M104.689 4.25391V13.0481C104.689 13.9654 104.505 14.7598 104.136 15.4313C103.776 16.094 103.228 16.634 102.561 16.9824C101.877 17.3456 101.052 17.5272 100.084 17.5272C99.1283 17.5272 98.3061 17.3456 97.6169 16.9824C96.9453 16.6365 96.3925 16.0961 96.0302 15.4313C95.662 14.7603 95.4779 13.9659 95.4779 13.0481V4.25391H92.7754V13.1505C92.7754 14.5067 93.0825 15.6942 93.6967 16.713C94.3122 17.7348 95.2029 18.5612 96.2661 19.0969C97.3638 19.6644 98.6363 19.9485 100.084 19.9489C101.543 19.9489 102.819 19.6649 103.911 19.0969C104.97 18.559 105.857 17.7329 106.47 16.713C107.084 15.6927 107.391 14.5052 107.391 13.1505V4.25391H104.689Z" fill="#111111"/>
</svg>
