<svg width="36" height="36" viewBox="0 0 36 36" fill="none" xmlns="http://www.w3.org/2000/svg">
<path d="M18 21C21.309 21 24 18.309 24 15C24 11.691 21.309 9 18 9C14.691 9 12 11.691 12 15C12 18.309 14.691 21 18 21ZM18 12C19.6545 12 21 13.3455 21 15C21 16.6545 19.6545 18 18 18C16.3455 18 15 16.6545 15 15C15 13.3455 16.3455 12 18 12Z" fill="#0A44D6"/>
<path d="M17.1299 32.721C17.384 32.9019 17.6881 32.9991 17.9999 32.9991C18.3118 32.9991 18.6159 32.9019 18.8699 32.721C19.3259 32.3985 30.0434 24.66 29.9999 15C29.9999 8.3835 24.6164 3 17.9999 3C11.3834 3 5.99995 8.3835 5.99995 14.9925C5.95645 24.66 16.6739 32.3985 17.1299 32.721ZM17.9999 6C22.9634 6 26.9999 10.0365 26.9999 15.0075C27.0314 21.6645 20.4179 27.642 17.9999 29.6025C15.5834 27.6405 8.96845 21.6615 8.99995 15C8.99995 10.0365 13.0364 6 17.9999 6Z" fill="#0A44D6"/>
</svg>
