<svg width="17" height="16" viewBox="0 0 17 16" fill="none" xmlns="http://www.w3.org/2000/svg">
<path d="M8.50065 15.9154C4.12828 15.9154 0.583984 12.3711 0.583984 7.9987C0.583984 3.62632 4.12828 0.0820312 8.50065 0.0820312C12.873 0.0820312 16.4173 3.62632 16.4173 7.9987C16.4173 12.3711 12.873 15.9154 8.50065 15.9154ZM6.68773 14.0684C5.90669 12.4117 5.45422 10.6193 5.35536 8.79036H2.2164C2.37064 10.0086 2.87527 11.1558 3.669 12.0928C4.46273 13.0297 5.51143 13.716 6.68773 14.0684ZM6.94107 8.79036C7.06061 10.7212 7.6124 12.5349 8.50065 14.1357C9.41303 12.4927 9.94593 10.6662 10.0602 8.79036H6.94107ZM14.7849 8.79036H11.6459C11.5471 10.6193 11.0946 12.4117 10.3136 14.0684C11.4899 13.716 12.5386 13.0297 13.3323 12.0928C14.126 11.1558 14.6307 10.0086 14.7849 8.79036ZM2.2164 7.20703H5.35536C5.45422 5.37811 5.90669 3.5857 6.68773 1.92899C5.51143 2.28136 4.46273 2.96769 3.669 3.90463C2.87527 4.84157 2.37064 5.9888 2.2164 7.20703ZM6.94186 7.20703H10.0594C9.94538 5.33123 9.41275 3.50478 8.50065 1.8617C7.58827 3.50471 7.05538 5.33117 6.94107 7.20703M10.3128 1.92899C11.0941 3.58564 11.5468 5.37806 11.6459 7.20703H14.7849C14.6307 5.9888 14.126 4.84157 13.3323 3.90463C12.5386 2.96769 11.4899 2.28136 10.3136 1.92899" fill="#545454"/>
</svg>
