<svg width="17" height="18" viewBox="0 0 17 18" fill="none" xmlns="http://www.w3.org/2000/svg">
<path fill-rule="evenodd" clip-rule="evenodd" d="M11.2718 6.5981C11.2718 9.17931 9.17931 11.2718 6.5981 11.2718C4.01689 11.2718 1.9244 9.17931 1.9244 6.5981C1.9244 4.01689 4.01689 1.9244 6.5981 1.9244C9.17931 1.9244 11.2718 4.01689 11.2718 6.5981ZM9.51042 12.5203C8.63206 12.9531 7.64347 13.1962 6.5981 13.1962C2.95407 13.1962 0 10.2421 0 6.5981C0 2.95407 2.95407 0 6.5981 0C10.2421 0 13.1962 2.95407 13.1962 6.5981C13.1962 8.49348 12.397 10.2022 11.1172 11.4057L16.3508 16.6392L14.9901 18L9.51042 12.5203Z" fill="#111111"/>
</svg>
