<svg width="30" height="28" viewBox="0 0 30 28" fill="none" xmlns="http://www.w3.org/2000/svg">
<path d="M14.98 18.5444L19.3027 23.459C20.9027 25.279 21.704 26.1897 22.5427 25.967C23.38 25.7457 23.668 24.5484 24.2427 22.1524L27.4293 8.86171C28.316 5.17104 28.7587 3.32704 27.7747 2.41638C26.7907 1.50571 25.0853 2.18304 21.6747 3.53638L5.85334 9.82038C3.12534 10.9044 1.76134 11.4457 1.67467 12.3764C1.66446 12.4712 1.66446 12.5669 1.67467 12.6617C1.75867 13.5937 3.12 14.139 5.84534 15.231C7.07867 15.7257 7.696 15.9737 8.13867 16.447C8.18845 16.5004 8.23645 16.5555 8.28267 16.6124C8.69067 17.119 8.864 17.7857 9.212 19.1137L9.864 21.603C10.2013 22.8964 10.3707 23.5444 10.8147 23.6324C11.2587 23.7204 11.644 23.1844 12.416 22.111L14.98 18.5444ZM14.98 18.5444L14.5573 18.1044C14.0747 17.6004 13.8333 17.3497 13.8333 17.0377C13.8333 16.7257 14.0733 16.4737 14.5573 15.971L19.3213 11.0057" stroke="#0A44D6" stroke-width="3" stroke-linecap="round" stroke-linejoin="round"/>
</svg>
