<svg width="17" height="18" viewBox="0 0 17 18" fill="none" xmlns="http://www.w3.org/2000/svg">
<path d="M8.47624 10.8809C10.7538 10.8809 12.7898 11.3629 14.713 12.6115C15.0323 12.8189 15.227 13.04 15.3522 13.2983C15.4824 13.5668 15.5666 13.936 15.5666 14.4796V16.1765C15.5666 16.2708 15.5361 16.3177 15.5278 16.3274C15.5276 16.3275 15.5275 16.3277 15.5274 16.3278C15.5234 16.3287 15.5155 16.3299 15.5025 16.3299H1.49703C1.4753 16.3299 1.44826 16.3218 1.42111 16.2938C1.39359 16.2654 1.375 16.2248 1.375 16.1765V14.4796C1.375 13.7242 1.75335 13.0345 2.38466 12.5965C4.15828 11.366 6.1913 10.8809 8.47624 10.8809Z" stroke="#0A44D6" stroke-width="1.75"/>
<path d="M11.4516 4.60664C11.4516 6.25336 10.1166 7.58828 8.46992 7.58828C6.82321 7.58828 5.48828 6.25336 5.48828 4.60664C5.48828 2.95993 6.82321 1.625 8.46992 1.625C10.1166 1.625 11.4516 2.95993 11.4516 4.60664Z" stroke="#0A44D6" stroke-width="1.75"/>
</svg>
