<svg width="61" height="60" viewBox="0 0 61 60" fill="none" xmlns="http://www.w3.org/2000/svg">
<rect x="10.0417" y="9.375" width="30" height="41.25" rx="1.875" stroke="#0A44D6" stroke-width="3.75"/>
<path d="M45.6667 9.375V50.625" stroke="#0A44D6" stroke-width="3.75" stroke-linecap="round"/>
<path d="M51.2917 9.375V50.625" stroke="#0A44D6" stroke-width="3.75" stroke-linecap="round"/>
<path d="M19.2267 31.2222V36.1111H16.6667V38.5556H20.5067V41H23.0667V38.5556H25.6267V41H28.1867V38.4932C30.7058 38.1889 32.6667 36.1527 32.6667 33.6667C32.6667 32.0533 31.8347 30.6307 30.5675 29.7397C31.5024 28.8305 32.0263 27.6074 32.0267 26.3333C32.0267 24.0624 30.3896 22.1643 28.1867 21.618V19H25.6267V21.4444H23.0667V19H20.5067V21.4444H16.6667V23.8889H19.2267V31.2222ZM27.5467 36.1111H21.7867V31.2222H27.5467C28.9586 31.2222 30.1067 32.3186 30.1067 33.6667C30.1067 35.0148 28.9586 36.1111 27.5467 36.1111ZM21.7867 23.8889H26.9067C28.3186 23.8889 29.4667 24.9852 29.4667 26.3333C29.4667 27.6814 28.3186 28.7778 26.9067 28.7778H21.7867V23.8889Z" fill="#0A44D6"/>
</svg>
