<svg width="60" height="60" viewBox="0 0 60 60" fill="none" xmlns="http://www.w3.org/2000/svg">
<path d="M19.6862 41.7738C18.1167 43.0818 16.4817 43.6797 14.7814 43.5676C13.081 43.4555 11.5955 42.8763 10.325 41.8299C9.05436 40.7835 8.1855 39.4102 7.71838 37.7098C7.25125 36.0095 7.55955 34.2624 8.64329 32.4686L12.8474 25.5178C11.9132 24.6956 11.1751 23.7053 10.6333 22.5468C10.0914 21.3884 9.82045 20.1365 9.82045 18.7911C9.82045 16.3247 10.6987 14.2133 12.4551 12.4569C14.2115 10.7005 16.3229 9.82227 18.7893 9.82227C21.2558 9.82227 23.3672 10.7005 25.1236 12.4569C26.88 14.2133 27.7582 16.3247 27.7582 18.7911C27.7582 21.2576 26.88 23.369 25.1236 25.1254C23.3672 26.8818 21.2558 27.76 18.7893 27.76C18.453 27.76 18.1167 27.7413 17.7803 27.7039C17.444 27.6666 17.1263 27.6105 16.8274 27.5358L12.5111 34.823C12.1 35.4956 11.9692 36.159 12.1187 36.8129C12.2682 37.4669 12.5859 37.9994 13.0717 38.4105C13.5575 38.8216 14.1367 39.0552 14.8094 39.1112C15.482 39.1673 16.136 38.9337 16.7713 38.4105L40.3146 18.1745C41.8841 16.8666 43.5284 16.278 45.2475 16.4088C46.9665 16.5396 48.4613 17.1282 49.7319 18.1745C51.0025 19.2209 51.862 20.5942 52.3104 22.2946C52.7589 23.9949 52.4412 25.742 51.3575 27.5358L47.1534 34.4866C48.0876 35.3088 48.8257 36.2991 49.3675 37.4576C49.9094 38.6161 50.1803 39.868 50.1803 41.2133C50.1803 43.6797 49.3021 45.7911 47.5457 47.5476C45.7893 49.304 43.6779 50.1822 41.2115 50.1822C38.745 50.1822 36.6336 49.304 34.8772 47.5476C33.1208 45.7911 32.2426 43.6797 32.2426 41.2133C32.2426 38.7469 33.1208 36.6354 34.8772 34.879C36.6336 33.1226 38.745 32.2444 41.2115 32.2444C41.5478 32.2444 41.8748 32.2631 42.1925 32.3005C42.5101 32.3379 42.8184 32.3939 43.1174 32.4686L47.4897 25.1814C47.9008 24.5088 48.0316 23.8455 47.8821 23.1915C47.7326 22.5375 47.4149 22.005 46.9291 21.5939C46.4433 21.1828 45.8641 20.9493 45.1914 20.8932C44.5187 20.8372 43.8648 21.0707 43.2295 21.5939L19.6862 41.7738ZM41.2115 45.6977C42.4447 45.6977 43.5004 45.2586 44.3786 44.3804C45.2568 43.5022 45.6959 42.4465 45.6959 41.2133C45.6959 39.9801 45.2568 38.9244 44.3786 38.0462C43.5004 37.168 42.4447 36.7289 41.2115 36.7289C39.9783 36.7289 38.9226 37.168 38.0443 38.0462C37.1661 38.9244 36.727 39.9801 36.727 41.2133C36.727 42.4465 37.1661 43.5022 38.0443 44.3804C38.9226 45.2586 39.9783 45.6977 41.2115 45.6977ZM18.7893 23.2756C20.0225 23.2756 21.0782 22.8365 21.9564 21.9583C22.8346 21.0801 23.2737 20.0243 23.2737 18.7911C23.2737 17.5579 22.8346 16.5022 21.9564 15.624C21.0782 14.7458 20.0225 14.3067 18.7893 14.3067C17.5561 14.3067 16.5004 14.7458 15.6222 15.624C14.744 16.5022 14.3049 17.5579 14.3049 18.7911C14.3049 20.0243 14.744 21.0801 15.6222 21.9583C16.5004 22.8365 17.5561 23.2756 18.7893 23.2756Z" fill="#0A44D6"/>
</svg>
