<svg width="60" height="60" viewBox="0 0 60 60" fill="none" xmlns="http://www.w3.org/2000/svg">
<path d="M27.0297 31.875C27.0297 32.9105 27.8692 33.75 28.9047 33.75H29.0996C30.1352 33.75 30.9746 32.9105 30.9746 31.875V22.5C30.9746 21.4645 30.1352 20.625 29.0996 20.625H28.9047C27.8692 20.625 27.0297 21.4645 27.0297 22.5V31.875ZM32.9471 29.0625C32.9471 30.098 33.7866 30.9375 34.8221 30.9375H35.017C36.0525 30.9375 36.892 30.098 36.892 29.0625V24.375C36.892 23.3395 36.0526 22.5 35.017 22.5H34.8221C33.7866 22.5 32.9471 23.3395 32.9471 24.375V29.0625ZM21.1123 28.125C21.1123 29.1605 21.9518 30 22.9873 30H23.1822C24.2178 30 25.0572 29.1605 25.0572 28.125V24.375C25.0572 23.3395 24.2178 22.5 23.1822 22.5H22.9873C21.9518 22.5 21.1123 23.3395 21.1123 24.375V28.125ZM17.1674 48.75V40.6875C15.2935 39.0625 13.8389 37.1641 12.8033 34.9922C11.7678 32.8203 11.25 30.5312 11.25 28.125C11.25 23.4375 12.9759 19.4531 16.4277 16.1719C19.8795 12.8906 24.071 11.25 29.0022 11.25C33.1115 11.25 36.7523 12.3984 39.9247 14.6953C43.0971 16.9922 45.1599 19.9844 46.1133 23.6719L48.6775 33.2812C48.8419 33.875 48.7268 34.4141 48.3323 34.8984C47.9378 35.3828 47.4118 35.625 46.7543 35.625H42.8094V41.25C42.8094 42.2812 42.4231 43.1641 41.6506 43.8984C40.878 44.6328 39.9493 45 38.8645 45H34.9196V48.75H30.9746V41.25H38.8645V31.875H44.1901L42.3163 24.6094C41.5602 21.7656 39.9493 19.4531 37.4838 17.6719C35.0182 15.8906 32.191 15 29.0022 15C25.1887 15 21.9342 16.2656 19.2385 18.7969C16.5428 21.3281 15.1949 24.4062 15.1949 28.0312C15.1949 29.9062 15.5976 31.6875 16.4031 33.375C17.2085 35.0625 18.3509 36.5625 19.8302 37.875L21.1123 39V48.75H17.1674Z" fill="#0A44D6"/>
</svg>
