<svg width="263" height="102" viewBox="0 0 263 102" fill="none" xmlns="http://www.w3.org/2000/svg">
<rect y="-0.00683594" width="263" height="101.085" rx="13.4184" fill="white"/>
<g clip-path="url(#clip0_2063_4211)">
<path d="M65.2645 41.3989C57.1402 41.3989 50.7922 47.4753 50.7922 55.6098C50.7922 63.7443 56.9798 69.7687 65.2645 69.7687C73.5492 69.7687 79.8444 63.6403 79.8444 55.5578C79.8444 47.5273 73.6568 41.3989 65.2645 41.3989ZM65.3193 63.9063C60.6928 63.9063 57.3026 60.3661 57.3026 55.6118C57.3026 50.8035 60.638 47.2652 65.2645 47.2652C69.9458 47.2652 73.334 50.8575 73.334 55.6118C73.334 60.3661 69.9458 63.9063 65.3193 63.9063ZM81.6187 47.5813H85.6544V69.2427H92.11V41.9269H81.6187V47.5813ZM34.5457 47.2632C37.9359 47.2632 40.6257 49.3234 41.6468 52.3876H48.48C47.2416 45.8372 41.7544 41.3989 34.6005 41.3989C26.4762 41.3989 20.1282 47.4753 20.1282 55.6118C20.1282 63.7483 26.3158 69.7707 34.6005 69.7707C41.594 69.7707 47.1889 65.3324 48.4272 58.728H41.6468C40.6785 61.7922 37.9886 63.9063 34.5984 63.9063C29.9171 63.9063 26.6365 60.3661 26.6365 55.6118C26.6386 50.8035 29.8664 47.2632 34.5457 47.2632ZM204.279 52.9696L199.545 52.2836C197.285 51.9676 195.671 51.2275 195.671 49.4834C195.671 47.5813 197.771 46.6312 200.621 46.6312C203.741 46.6312 205.732 47.9513 206.163 50.1174H212.403C211.703 44.6231 207.399 41.4009 200.783 41.4009C193.95 41.4009 189.431 44.8351 189.431 49.6954C189.431 54.3437 192.391 57.0399 198.361 57.8839L203.095 58.57C205.41 58.886 206.701 59.7861 206.701 61.4762C206.701 63.6423 204.441 64.5404 201.321 64.5404C197.501 64.5404 195.349 63.0083 195.026 60.6841H188.678C189.271 66.0205 193.52 69.7707 201.266 69.7707C208.315 69.7707 212.994 66.6005 212.994 61.1581C212.994 56.2978 209.606 53.7617 204.279 52.9696ZM88.8822 30.6742C86.5152 30.6742 84.7389 32.3643 84.7389 34.6884C84.7389 37.0126 86.5131 38.7027 88.8822 38.7027C91.2493 38.7027 93.0256 37.0126 93.0256 34.6884C93.0256 32.3643 91.2493 30.6742 88.8822 30.6742ZM183.621 51.2795C183.621 45.3631 179.963 41.4009 172.216 41.4009C164.9 41.4009 160.811 45.0471 160.003 50.6475H166.406C166.729 48.4813 168.45 46.6852 172.109 46.6852C175.391 46.6852 177.005 48.1113 177.005 49.8554C177.005 52.1276 174.045 52.7076 170.387 53.0776C165.438 53.6057 159.305 55.2958 159.305 61.6362C159.305 66.5505 163.018 69.7187 168.936 69.7187C173.562 69.7187 176.467 67.8166 177.921 64.8044C178.136 67.4986 180.18 69.2427 183.032 69.2427H186.798V63.5903H183.623V51.2795H183.621ZM177.273 58.148C177.273 61.7942 174.045 64.4884 170.117 64.4884C167.695 64.4884 165.651 63.4843 165.651 61.3722C165.651 58.678 168.934 57.9379 171.946 57.6219C174.851 57.3579 176.465 56.7239 177.273 55.5078V58.148ZM143.004 41.3989C139.398 41.3989 136.386 42.879 134.234 45.3611V30.4102H127.778V69.2427H134.126V65.6504C136.278 68.2386 139.345 69.7707 143.004 69.7707C150.75 69.7707 156.615 63.7483 156.615 55.6118C156.615 47.4753 150.643 41.3989 143.004 41.3989ZM142.035 63.9063C137.409 63.9063 134.019 60.3661 134.019 55.6118C134.019 50.8575 137.462 47.2652 142.088 47.2652C146.769 47.2652 150.05 50.8055 150.05 55.6118C150.05 60.3661 146.662 63.9063 142.035 63.9063ZM112.338 41.3989C108.141 41.3989 105.397 43.089 103.783 45.4671V41.9269H97.3801V69.2407H103.836V54.3957C103.836 50.2214 106.525 47.2632 110.506 47.2632C114.219 47.2632 116.532 49.8514 116.532 53.6037V69.2427H122.987V53.1296C122.989 46.2592 119.386 41.3989 112.338 41.3989ZM243.768 54.7137C243.768 46.8952 237.958 41.4009 230.156 41.4009C221.871 41.4009 215.791 47.5293 215.791 55.6118C215.791 64.1183 222.302 69.7707 230.264 69.7707C236.989 69.7707 242.261 65.8605 243.605 60.3141H236.88C235.911 62.7442 233.544 64.1183 230.369 64.1183C226.226 64.1183 223.106 61.5822 222.407 57.1439H243.766V54.7137H243.768ZM222.785 52.5996C223.808 48.7953 226.713 46.9472 230.048 46.9472C233.707 46.9472 236.504 49.0074 237.15 52.5996H222.785Z" fill="#0052FF"/>
</g>
<defs>
<clipPath id="clip0_2063_4211">
<rect width="223.639" height="40.1404" fill="white" transform="translate(20.1276 30.4082)"/>
</clipPath>
</defs>
</svg>
