<svg width="263" height="102" viewBox="0 0 263 102" fill="none" xmlns="http://www.w3.org/2000/svg">
<rect y="-0.00683594" width="263" height="101.085" rx="13.4184" fill="#313131"/>
<g clip-path="url(#clip0_2063_4215)">
<path d="M45.4886 46.9509L53.0733 39.3095L60.6611 46.9572L65.0719 42.5085L53.0733 30.4121L41.0747 42.5054L45.4886 46.9509Z" fill="#F3BA2F"/>
<path d="M33.5444 50.0928L37.9566 45.6457L42.3689 50.0928L37.9566 54.5398L33.5444 50.0928Z" fill="#F3BA2F"/>
<path d="M45.4886 53.2336L53.0734 60.8781L60.6611 53.2305L65.075 57.6729L65.0719 57.6761L53.0734 69.7724L41.0748 57.6823L41.0686 57.6761L45.4886 53.2336Z" fill="#F3BA2F"/>
<path d="M63.7706 50.0928L68.1829 45.6457L72.5952 50.0928L68.1829 54.5398L63.7706 50.0928Z" fill="#F3BA2F"/>
<path d="M57.5493 50.0921L53.0737 45.5781L49.7641 48.9139L49.3816 49.2963L48.5981 50.0859L48.592 50.0921L48.5981 50.1014L53.0737 54.6092L57.5493 50.0952L57.5524 50.0921H57.5493Z" fill="#F3BA2F"/>
<path d="M79.4794 39.9482H89.0783C91.4595 39.9482 93.2608 40.57 94.4823 41.8135C94.9425 42.2729 95.3053 42.8217 95.5486 43.4266C95.792 44.0316 95.9109 44.68 95.8981 45.3327V45.3918C95.9063 45.9264 95.8325 46.4591 95.6791 46.971C95.5424 47.4117 95.344 47.8304 95.0899 48.2145C94.853 48.5768 94.5664 48.9033 94.2386 49.1845C93.9183 49.4623 93.5675 49.7022 93.193 49.8995C94.273 50.2787 95.2442 50.9192 96.0214 51.7648C96.7082 52.5524 97.0516 53.6404 97.0516 55.029V55.0881C97.0712 55.9553 96.8839 56.8146 96.5057 57.5938C96.1392 58.3117 95.6019 58.9269 94.9419 59.3845C94.1957 59.8887 93.3648 60.2521 92.4897 60.457C91.4501 60.7055 90.3842 60.8256 89.3158 60.8145H79.4794V39.9482ZM88.1159 48.3855C88.9464 48.426 89.7729 48.2459 90.5126 47.8633C90.801 47.6934 91.0366 47.4456 91.1925 47.1478C91.3484 46.85 91.4185 46.5141 91.3947 46.1783V46.1192C91.41 45.8098 91.3476 45.5014 91.2134 45.2227C91.0792 44.9439 90.8774 44.7038 90.6267 44.5244C90.1147 44.1576 89.3754 43.9741 88.409 43.9741H83.918V48.3855H88.1159ZM89.3281 56.7948C90.1555 56.8416 90.9791 56.6508 91.7032 56.2446C91.9853 56.0619 92.2136 55.8064 92.3644 55.5046C92.5152 55.2027 92.583 54.8657 92.5607 54.5285V54.4695C92.5718 54.149 92.5048 53.8306 92.3655 53.5423C92.2262 53.254 92.0189 53.0044 91.7618 52.8156C91.2313 52.4011 90.3738 52.1938 89.1893 52.1938H83.918V56.7948H89.3281Z" fill="#F3BA2F"/>
<path d="M102.77 39.9482H107.326V60.8207H102.77V39.9482Z" fill="#F3BA2F"/>
<path d="M114.22 39.9482H118.421L128.13 52.7938V39.9482H132.628V60.8207H128.75L118.723 47.5524V60.8207H114.22V39.9482Z" fill="#F3BA2F"/>
<path d="M146.422 39.8018H150.616L159.49 60.8235H154.734L152.84 56.1416H144.084L142.19 60.8235H137.544L146.422 39.8018ZM151.215 52.0877L148.457 45.3168L145.712 52.0877H151.215Z" fill="#F3BA2F"/>
<path d="M164.416 39.9482H168.617L178.321 52.7938V39.9482H182.818V60.8207H178.941L168.913 47.5524V60.8207H164.416V39.9482Z" fill="#F3BA2F"/>
<path d="M199.215 61.187C197.763 61.1996 196.324 60.9162 194.984 60.3539C193.722 59.8287 192.577 59.0542 191.616 58.076C190.656 57.0979 189.899 55.9359 189.391 54.6586C188.855 53.3224 188.584 51.8935 188.592 50.4523V50.3933C188.569 47.5525 189.653 44.8161 191.612 42.7736C192.576 41.7759 193.73 40.9849 195.005 40.4482C196.392 39.8692 197.881 39.5805 199.382 39.5995C200.27 39.5928 201.156 39.673 202.028 39.8389C202.775 39.9812 203.505 40.201 204.206 40.4948C204.843 40.7649 205.448 41.1048 206.01 41.5083C206.56 41.9019 207.076 42.3407 207.553 42.8202L204.656 46.1902C203.916 45.502 203.086 44.9194 202.189 44.4586C201.307 44.0338 200.34 43.821 199.363 43.8368C198.551 43.8281 197.745 43.9938 197.001 44.3229C196.256 44.652 195.589 45.1369 195.045 45.7456C194.506 46.3527 194.083 47.0559 193.799 47.8192C193.502 48.6258 193.352 49.48 193.358 50.3404V50.3995C193.355 51.2586 193.504 52.1114 193.799 52.9176C194.079 53.6836 194.498 54.3908 195.033 55.0036C195.573 55.6199 196.238 56.112 196.983 56.4467C197.728 56.7813 198.535 56.9508 199.351 56.9435C200.39 56.9765 201.42 56.7512 202.352 56.2876C203.239 55.8003 204.06 55.1983 204.792 54.4969L207.692 57.4503C207.18 58.0103 206.626 58.5299 206.035 59.0047C205.455 59.4671 204.825 59.8623 204.157 60.1829C203.445 60.5206 202.695 60.7701 201.924 60.9259C201.032 61.106 200.125 61.1935 199.215 61.187Z" fill="#F3BA2F"/>
<path d="M213.067 39.9482H228.653V44.0332H217.549V48.2674H227.327V52.3524H217.564V56.7358H228.807V60.8207H213.077L213.067 39.9482Z" fill="#F3BA2F"/>
</g>
<defs>
<clipPath id="clip0_2063_4215">
<rect width="195.259" height="39.3605" fill="white" transform="translate(33.5459 30.4082)"/>
</clipPath>
</defs>
</svg>
