<svg width="263" height="102" viewBox="0 0 263 102" fill="none" xmlns="http://www.w3.org/2000/svg">
<rect y="-0.00683594" width="263" height="101.085" rx="13.4184" fill="white"/>
<g clip-path="url(#clip0_2063_4232)">
<path d="M83.7499 58.2505C79.7323 58.2505 77.2425 54.8107 77.2425 50.0513C77.2425 45.3392 79.3378 41.8286 83.7252 41.8286C86.609 41.8286 88.507 43.5957 88.8525 45.9282H95.5571C95.2116 43.0302 93.856 40.4857 91.4899 38.7893C89.5671 37.3756 86.905 36.5039 83.7499 36.5039C75.6649 36.5039 70.4147 42.347 70.4147 50.0513C70.4147 57.8028 75.8375 63.481 83.7995 63.481C87.6196 63.481 90.405 62.4679 92.4757 60.5359C94.3242 58.8395 95.5571 56.4834 95.7293 53.9153H89.0247C88.7293 56.4363 86.757 58.2505 83.7499 58.2505Z" fill="#262626"/>
<path d="M108.103 43.877C101.892 43.877 97.7258 48.1179 97.7258 53.7018C97.7258 59.2857 101.892 63.5267 108.103 63.5267C114.364 63.5267 118.456 59.2857 118.456 53.7018C118.456 48.1179 114.364 43.877 108.103 43.877ZM108.078 59.3093C105.392 59.3093 103.986 57.071 103.986 53.7018C103.986 50.3326 105.392 48.0472 108.078 48.0472C110.765 48.0472 112.219 50.3326 112.219 53.7018C112.195 57.071 110.765 59.3093 108.078 59.3093Z" fill="#262626"/>
<path d="M127.226 41.9028C128.545 40.6422 128.545 38.5985 127.226 37.338C125.907 36.0774 123.769 36.0774 122.45 37.338C121.132 38.5985 121.132 40.6422 122.45 41.9028C123.769 43.1633 125.907 43.1633 127.226 41.9028Z" fill="#262626"/>
<path d="M119.466 48.5433H122.054V62.9389H128.216V44.373H119.466V48.5433Z" fill="#262626"/>
<path d="M143.376 43.8281C140.69 43.8281 138.816 44.9119 137.387 46.9146H137.264V44.37H131.323V62.9124H137.51V52.6634C137.51 50.378 138.866 48.7523 140.912 48.7523C142.933 48.7523 143.943 50.0953 143.943 52.0509V62.9124H150.13V50.8493C150.13 46.7261 147.616 43.8281 143.376 43.8281Z" fill="#262626"/>
<path d="M164.624 37.0215H153.063V62.9148H164.205C167.606 62.9148 170.342 62.0902 172.463 60.5587C175.494 58.344 177.17 54.6921 177.17 50.1213C177.17 42.2048 172.117 37.0215 164.624 37.0215ZM163.712 57.543H159.768V42.3934H163.786C168.001 42.3934 170.392 45.4327 170.392 50.1449C170.367 54.8806 168.099 57.543 163.712 57.543Z" fill="#262626"/>
<path d="M195.484 46.2767C193.809 44.8395 191.615 43.9678 188.854 43.9678C182.938 43.9678 178.896 48.2087 178.896 53.7455C178.896 59.353 182.839 63.5939 189.249 63.5939C191.713 63.5939 193.685 62.9813 195.312 61.8976C197.013 60.7666 198.147 59.188 198.566 57.5153H192.551C192.009 58.6697 190.949 59.353 189.322 59.353C186.783 59.353 185.354 57.798 184.959 55.3005H198.911C198.936 51.5072 197.802 48.3029 195.484 46.2767ZM184.984 51.7664C185.403 49.5517 186.611 48.138 188.953 48.138C190.949 48.138 192.404 49.5517 192.625 51.7664H184.984Z" fill="#262626"/>
<path d="M211.087 51.3218C208.622 50.8977 206.429 50.7092 206.429 49.4133C206.429 48.2589 207.611 47.717 209.115 47.717C210.816 47.717 211.999 48.2353 212.221 49.8846H217.915C217.619 46.2326 214.661 43.9473 209.164 43.9473C204.58 43.9473 200.784 45.9735 200.784 49.8846C200.784 54.2433 204.383 55.0915 207.759 55.6334C210.348 56.0575 212.689 56.246 212.689 57.9188C212.689 59.1204 211.506 59.7566 209.657 59.7566C207.611 59.7566 206.33 58.8612 206.083 57H200.242C200.439 61.0995 203.988 63.5969 209.682 63.5969C214.76 63.5969 218.506 61.5001 218.506 57.4476C218.531 52.7119 214.513 51.8637 211.087 51.3218Z" fill="#262626"/>
<path d="M233.05 51.3465L239.878 44.3725H232.754L226.986 50.6397V37.0215H220.898V62.9384H226.986V57.2366L228.859 55.3518L233.518 62.9384H240.667L233.05 51.3465Z" fill="#262626"/>
<path d="M43.2507 51.7707C44.2854 51.7707 45.1241 50.969 45.1241 49.98C45.1241 48.9911 44.2854 48.1895 43.2507 48.1895C42.2161 48.1895 41.3774 48.9911 41.3774 49.98C41.3774 50.969 42.2161 51.7707 43.2507 51.7707Z" fill="#F8BF1E"/>
<path d="M58.1883 51.7707C59.2229 51.7707 60.0616 50.969 60.0616 49.98C60.0616 48.9911 59.2229 48.1895 58.1883 48.1895C57.1536 48.1895 56.3149 48.9911 56.3149 49.98C56.3149 50.969 57.1536 51.7707 58.1883 51.7707Z" fill="#F8BF1E"/>
<path d="M58.1883 66.0695C59.2229 66.0695 60.0616 65.2678 60.0616 64.2789C60.0616 63.29 59.2229 62.4883 58.1883 62.4883C57.1536 62.4883 56.3149 63.29 56.3149 64.2789C56.3149 65.2678 57.1536 66.0695 58.1883 66.0695Z" fill="#F8BF1E"/>
<path d="M63.6852 35.3483C63.488 32.7331 61.2942 30.6126 58.5582 30.4241C56.8081 30.3063 55.2305 30.9424 54.1213 32.0262C53.2832 32.8509 52.1494 33.3456 50.9415 33.3456H50.4978C49.2654 33.3456 48.1069 32.8509 47.2441 32.0027C46.2335 31.0131 44.8285 30.4241 43.2756 30.4241C41.7227 30.4241 40.3177 31.0367 39.3071 32.0027C38.4443 32.8509 37.2859 33.3456 36.0534 33.3456H35.6343C34.4265 33.3456 33.268 32.898 32.4299 32.0734C32.2574 31.9084 32.0848 31.7435 31.9123 31.6022C29.8171 29.9765 26.7359 30.0236 24.7147 31.7435C22.2744 33.7933 22.1758 37.3746 24.4436 39.5421C24.4682 39.5657 24.4929 39.5892 24.5175 39.6128C25.4049 40.4139 25.8732 41.5448 25.8732 42.6993V43.0998C25.8732 44.2779 25.3556 45.3852 24.4682 46.2098C23.4329 47.1759 22.8167 48.5188 22.8167 50.0032C22.8167 51.4875 23.4576 52.8304 24.4682 53.7965C25.3556 54.6211 25.8732 55.7284 25.8732 56.9065V57.4484C25.8732 58.6029 25.3556 59.6866 24.4929 60.4877C23.4083 61.5008 22.7428 62.938 22.8167 64.5166C22.94 67.2968 25.3063 69.5351 28.1903 69.6293C29.8664 69.6764 31.37 69.0403 32.4299 67.9801C33.268 67.1554 34.4018 66.6371 35.6097 66.6371H36.078C37.2859 66.6371 38.4197 67.1319 39.2578 67.9801C40.367 69.0874 41.9692 69.7235 43.7193 69.6058C46.4553 69.4172 48.6738 67.2968 48.871 64.658C49.0928 61.5244 46.5293 58.9327 43.3003 58.9327C41.772 58.9327 40.367 59.5217 39.3564 60.4877C38.4936 61.3123 37.3351 61.8071 36.1273 61.8071H35.6097C34.4018 61.8071 33.2187 61.3595 32.356 60.5113C32.3313 60.4877 32.3313 60.4877 32.3067 60.4641C31.4193 59.6395 30.9017 58.5322 30.9017 57.3541V56.8829C30.9017 55.7049 31.4193 54.5975 32.3067 53.7729C33.3419 52.8069 33.9582 51.4639 33.9582 49.9796C33.9582 48.4953 33.3173 47.1523 32.3067 46.1863C31.4193 45.3617 30.9017 44.2543 30.9017 43.0763V42.6522C30.9017 41.4741 31.4193 40.3667 32.282 39.5421C32.3067 39.5186 32.3067 39.5186 32.3313 39.495C32.356 39.4715 32.356 39.4715 32.3806 39.4479C33.2434 38.6233 34.4018 38.1285 35.6343 38.1285H36.078C37.3105 38.1285 38.469 38.6233 39.3317 39.4715C40.3423 40.461 41.7473 41.05 43.3003 41.05C44.8532 41.05 46.2582 40.4374 47.2688 39.4715C48.1315 38.6233 49.29 38.1285 50.5225 38.1285H50.9169C52.1494 38.1285 53.3078 38.6233 54.1706 39.4715C55.1812 40.461 56.5862 41.05 58.1391 41.05C61.3435 41.0736 63.907 38.4819 63.6852 35.3483Z" fill="#F8BF1E"/>
</g>
<defs>
<clipPath id="clip0_2063_4232">
<rect width="217.856" height="39.3605" fill="white" transform="translate(22.8112 30.4082)"/>
</clipPath>
</defs>
</svg>
