<svg width="264" height="102" viewBox="0 0 264 102" fill="none" xmlns="http://www.w3.org/2000/svg">
<rect x="0.552734" y="-0.00683594" width="263" height="101.085" rx="13.4184" fill="white"/>
<path d="M75.6429 58.8547H80.091V41.4041H85.9079V37.184H69.864V41.4041H75.6429V58.8547ZM85.9079 58.8547H90.09V51.5551C90.09 49.0079 91.3826 47.4871 93.3976 47.4871C94.0819 47.4871 94.6522 47.6012 95.2985 47.8293V43.5712C94.8423 43.4571 94.3481 43.3811 93.8918 43.3811C92.181 43.3811 90.6222 44.5216 90.09 46.0044V43.5712H85.9079V58.8547ZM103.32 59.1969C105.411 59.1969 107.008 58.1323 107.731 57.1439V58.8547H111.913V43.6092H107.731V45.32C107.046 44.3315 105.45 43.267 103.32 43.267C99.2525 43.267 96.1349 46.9168 96.1349 51.251C96.1349 55.5471 99.2525 59.1969 103.32 59.1969ZM104.195 55.395C101.876 55.395 100.355 53.6461 100.355 51.251C100.355 48.8558 101.876 47.1069 104.195 47.1069C106.514 47.1069 108.035 48.8558 108.035 51.251C108.035 53.6461 106.514 55.395 104.195 55.395ZM121.836 59.1969C123.927 59.1969 125.523 58.1323 126.246 57.1439V58.8547H130.428V35.9674H126.246V45.32C125.561 44.3315 123.965 43.267 121.836 43.267C117.768 43.267 114.65 46.9168 114.65 51.251C114.688 55.5471 117.768 59.1969 121.836 59.1969ZM122.748 55.395C120.429 55.395 118.908 53.6461 118.908 51.251C118.908 48.8558 120.429 47.1069 122.748 47.1069C125.067 47.1069 126.588 48.8558 126.588 51.251C126.588 53.6461 125.067 55.395 122.748 55.395ZM136.245 41.2901C137.727 41.2901 138.944 40.1115 138.944 38.6287C138.944 37.146 137.727 35.9674 136.245 35.9674C134.8 35.9674 133.583 37.146 133.583 38.6287C133.621 40.0735 134.8 41.252 136.245 41.2901ZM134.192 58.8547H138.374V43.7613H134.192V58.8547ZM142.062 58.8547H146.244V51.403C146.244 48.4756 147.688 47.0689 149.627 47.0689C151.376 47.0689 152.327 48.3996 152.327 50.6046V58.8547H156.509V49.9203C156.509 45.9664 154.304 43.267 150.616 43.267C148.639 43.267 147.08 44.1034 146.244 45.3581V43.6092H142.062V58.8547ZM167.154 54.7867C165.063 54.7867 163.276 53.1899 163.276 50.8708C163.276 48.5136 165.025 46.9548 167.154 46.9548C169.245 46.9548 171.032 48.5136 171.032 50.8708C171.032 53.2279 169.283 54.7867 167.154 54.7867ZM166.66 65.4699C171.336 65.4699 174.872 63.0748 174.872 57.6001V43.5332H170.69V45.244C169.853 44.0654 168.218 43.191 166.279 43.191C162.287 43.191 159.094 46.6127 159.094 50.9088C159.094 55.1669 162.287 58.5886 166.279 58.5886C168.218 58.5886 169.891 57.7141 170.69 56.5736V57.6001C170.69 60.0333 169.055 61.7821 166.584 61.7821C164.873 61.7821 163.162 61.2119 161.831 59.8812L159.55 62.9987C161.299 64.7096 163.998 65.4699 166.66 65.4699ZM183.73 58.8547H187.684L196.656 37.184H191.79L185.745 52.2394L179.624 37.184H174.834L183.73 58.8547ZM200.458 41.1C201.941 41.1 203.12 39.9214 203.158 38.4387C203.158 36.9559 201.941 35.7773 200.458 35.7773C199.014 35.7773 197.797 36.9559 197.797 38.4387C197.797 39.9214 199.052 41.1 200.458 41.1ZM198.405 58.8547H202.587V43.5712H198.405V58.8547ZM213.385 59.1969C216.578 59.1969 219.011 57.8662 220.456 55.7752L217.339 53.456C216.654 54.5206 215.324 55.395 213.385 55.395C211.37 55.395 209.583 54.2544 209.317 52.2014H220.722C220.798 51.5551 220.798 51.1369 220.798 50.7567C220.798 45.7763 217.301 43.267 213.271 43.267C208.632 43.267 205.249 46.7267 205.249 51.2129C205.325 56.0413 208.86 59.1969 213.385 59.1969ZM209.507 49.388C209.925 47.5251 211.636 46.7267 213.195 46.7267C214.753 46.7267 216.274 47.5631 216.654 49.388H209.507ZM236.5 58.8547H240.644L245.662 43.5712H241.176L238.325 53.342L235.207 43.5712H232.014L228.934 53.342L226.045 43.5712H221.597L226.653 58.8547H230.797L233.649 50.1864L236.5 58.8547Z" fill="black"/>
<path d="M34.4301 58.8523H25.99V45.6218H17.5498V37.1816H34.3921V58.8523H34.4301ZM51.3104 58.8523H41.6917L50.7401 37.1816H60.3589L51.3104 58.8523ZM41.6537 37.1816C44.315 37.1816 46.482 39.3487 46.482 42.01C46.482 44.6713 44.315 46.8384 41.6537 46.8384C38.9924 46.8384 36.8253 44.6713 36.8253 42.01C36.8633 39.3487 38.9924 37.1816 41.6537 37.1816Z" fill="black"/>
</svg>
