<svg width="263" height="102" viewBox="0 0 263 102" fill="none" xmlns="http://www.w3.org/2000/svg">
<rect y="0.0810547" width="263" height="101.085" rx="13.4184" fill="white"/>
<g clip-path="url(#clip0_2063_4253)">
<path d="M212.313 62.3098C212.313 59.6581 214.466 57.5068 217.117 57.5068C219.768 57.5068 221.918 59.6581 221.918 62.3098C221.918 64.9615 219.768 67.1116 217.117 67.1116C214.466 67.1116 212.313 64.9615 212.313 62.3098Z" fill="#86BC24"/>
<path d="M59.1352 49.585C59.1352 46.5428 58.5474 44.2857 57.3718 42.8152C56.1944 41.3464 54.4116 40.6126 52.0139 40.6126H49.4639V59.2162H51.4152C54.0779 59.2162 56.0291 58.4265 57.2717 56.8423C58.5127 55.2609 59.1352 52.8412 59.1352 49.585ZM68.23 49.2679C68.23 54.8105 66.7403 59.0814 63.7604 62.079C60.7808 65.0781 56.5921 66.5776 51.1926 66.5776H40.7012V33.3663H51.9252C57.1312 33.3663 61.1505 34.7298 63.9828 37.4552C66.8139 40.1819 68.23 44.1178 68.23 49.2683M97.2914 66.5774H105.64V33.2268H97.2914V66.5774ZM117.368 54.1374C117.368 56.2638 117.646 57.8856 118.2 59.0002C118.756 60.1163 119.687 60.6736 120.996 60.6736C122.292 60.6736 123.208 60.1163 123.741 59.0002C124.275 57.8856 124.54 56.2638 124.54 54.1374C124.54 52.0221 124.271 50.4266 123.73 49.3498C123.188 48.2696 122.264 47.7291 120.953 47.7291C119.672 47.7291 118.756 48.2671 118.2 49.3371C117.646 50.4086 117.368 52.0082 117.368 54.1374ZM133.037 54.1374C133.037 58.1886 131.976 61.3491 129.846 63.6143C127.719 65.881 124.74 67.0152 120.912 67.0152C117.24 67.0152 114.317 65.8561 112.148 63.5378C109.975 61.2198 108.89 58.0871 108.89 54.1376C108.89 50.0987 109.953 46.9605 112.082 44.7231C114.211 42.4855 117.197 41.3668 121.041 41.3668C123.416 41.3668 125.517 41.8852 127.338 42.9206C129.16 43.9557 130.567 45.4389 131.555 47.3707C132.544 49.2996 133.037 51.5567 133.037 54.1374ZM136.353 66.5774H144.703V41.8046H136.353V66.5774ZM136.353 38.808H144.702V33.2256H136.353V38.808ZM161.619 60.2589C162.746 60.2589 164.089 59.9725 165.655 59.4042V65.6374C164.529 66.132 163.459 66.4864 162.442 66.6963C161.424 66.909 160.23 67.0146 158.864 67.0146C156.061 67.0146 154.04 66.31 152.799 64.9034C151.564 63.4971 150.944 61.3374 150.944 58.423V48.2107H148.02V41.8069H150.944V35.4804L159.358 34.0171V41.8067H164.685V48.2109H159.358V57.8531C159.358 59.457 160.112 60.2589 161.619 60.2589ZM180.943 60.2589C182.07 60.2589 183.413 59.9725 184.979 59.4042V65.6374C183.855 66.132 182.783 66.4864 181.766 66.6963C180.747 66.909 179.558 67.0146 178.189 67.0146C175.386 67.0146 173.365 66.31 172.126 64.9034C170.888 63.4971 170.269 61.3374 170.269 58.423V48.2107H167.343V41.8069H170.269V35.3847L178.681 34.0171V41.8067H184.011V48.2109H178.681V57.8531C178.681 59.457 179.435 60.2589 180.943 60.2589ZM195.515 51.1195C195.629 49.7632 196.017 48.7694 196.678 48.1344C197.342 47.5006 198.162 47.1837 199.143 47.1837C200.214 47.1837 201.064 47.5395 201.695 48.2565C202.33 48.9694 202.661 49.9244 202.687 51.1195H195.515ZM207.289 44.2873C205.304 42.3418 202.489 41.3675 198.846 41.3675C195.017 41.3675 192.071 42.4863 190.005 44.7237C187.942 46.9613 186.909 50.1715 186.909 54.3551C186.909 58.4061 188.025 61.5303 190.252 63.7234C192.479 65.9164 195.608 67.0144 199.637 67.0144C201.571 67.0144 203.236 66.8824 204.632 66.6197C206.019 66.3599 207.361 65.89 208.664 65.2119L207.381 59.629C206.434 60.0157 205.534 60.3129 204.683 60.5087C203.455 60.7939 202.106 60.9369 200.639 60.9369C199.029 60.9369 197.759 60.5437 196.828 59.7571C195.897 58.9691 195.401 57.8822 195.344 56.498H210.267V52.6941C210.267 49.0349 209.275 46.2316 207.289 44.2873ZM79.3106 51.1195C79.4245 49.7632 79.8124 48.7694 80.4738 48.1344C81.1366 47.5006 81.958 47.1837 82.9407 47.1837C84.008 47.1837 84.8586 47.5395 85.491 48.2565C86.126 48.9694 86.4553 49.9244 86.4846 51.1195H79.3106ZM91.0861 44.2873C89.1001 42.3418 86.2857 41.3675 82.6418 41.3675C78.8116 41.3675 75.8667 42.4863 73.8028 44.7237C71.739 46.9613 70.7051 50.1715 70.7051 54.3551C70.7051 58.4061 71.8196 61.5303 74.0489 63.7234C76.2753 65.9164 79.4036 67.0144 83.4327 67.0144C85.3672 67.0144 87.0322 66.8824 88.4274 66.6197C89.8144 66.3599 91.1571 65.89 92.4606 65.2119L91.1765 59.629C90.2299 60.0157 89.3294 60.3129 88.4802 60.5087C87.2491 60.7939 85.9024 60.9369 84.4345 60.9369C82.8266 60.9369 81.5551 60.5437 80.6239 59.7571C79.6913 58.9691 79.1966 57.8822 79.1397 56.498H94.063V52.6941C94.063 49.0349 93.0709 46.2316 91.0861 44.2873Z" fill="#0F0B0B"/>
</g>
<defs>
<clipPath id="clip0_2063_4253">
<rect width="181.218" height="39.3605" fill="white" transform="translate(40.7012 30.4951)"/>
</clipPath>
</defs>
</svg>
