<svg width="263" height="102" viewBox="0 0 263 102" fill="none" xmlns="http://www.w3.org/2000/svg">
<rect x="-0.000976562" y="0.0810547" width="263" height="101.085" rx="13.4184" fill="white"/>
<g clip-path="url(#clip0_2063_4258)">
<path d="M78.6634 32.2803H63.5667V52.6529H83.9393V37.5561C83.9393 34.6329 81.5866 32.2803 78.6634 32.2803ZM58.8614 32.2803H56.2651C53.3419 32.2803 50.9893 34.6329 50.9893 37.5561V40.1524H58.8614V32.2803ZM50.9893 44.8577H58.8614V52.7298H50.9893V44.8577ZM76.1505 65.2303H78.7468C81.67 65.2303 84.0226 62.8776 84.0226 59.9545V57.4415H76.1505V65.2303ZM63.5667 57.4415H71.4388V65.3136H63.5667V57.4415ZM50.9893 57.4415V60.0378C50.9893 62.961 53.3419 65.3136 56.2651 65.3136H58.8614V57.4415H50.9893ZM104.068 34.3893H100.985V63.1982H117.3V60.4417H104.068V34.3893ZM127.197 42.0178C121.191 42.0178 116.973 46.4796 116.973 52.8901V53.6273C117.056 56.3838 118.274 58.9865 120.3 60.9289C122.249 62.7174 124.761 63.7687 127.441 63.7687H127.845C130.685 63.7687 133.364 62.711 135.473 60.9289L135.557 60.8455L134.178 58.5762L134.018 58.6595C132.313 60.2045 130.204 61.0955 127.935 61.0955C124.204 61.0955 120.389 58.6595 120.146 53.2234H135.73V53.0632C135.73 53.0632 135.813 52.0888 135.813 51.6016C135.794 45.7552 132.39 42.0178 127.197 42.0178ZM120.216 50.6208C120.864 46.9668 123.543 44.6141 127.031 44.6141C129.627 44.6141 132.467 46.159 132.71 50.6208H120.216ZM153.654 44.4538V45.5116C152.352 43.3192 149.923 41.9409 147.403 41.9409H147.16C141.64 41.9409 137.826 46.3257 137.826 52.7362C137.826 59.2301 141.48 63.6084 146.916 63.6084C151.218 63.6084 153.166 61.0122 153.814 59.8775V63.0443H156.737V34.3893H153.737V44.4538H153.654ZM147.32 60.9289C143.506 60.9289 140.993 57.6851 140.993 52.8131C140.993 48.1078 143.672 44.7808 147.403 44.7808C150.57 44.7808 153.731 47.2937 153.731 52.8131C153.731 58.8198 150.403 60.9289 147.32 60.9289ZM174.507 44.8577V45.018C173.936 44.0436 172.154 41.9345 167.853 41.9345C162.417 41.9345 158.846 46.0757 158.846 52.4029C158.846 58.73 162.577 63.0315 168.096 63.0315C171.097 63.0315 173.129 61.9738 174.507 59.7878V62.6276C174.507 66.6022 171.994 68.8779 167.526 68.8779C165.661 68.8779 163.712 68.3907 162.007 67.4996L161.846 67.4163L160.712 69.9292L160.872 70.0125C162.981 71.0703 165.334 71.6344 167.609 71.6344C172.398 71.6344 177.507 69.1984 177.507 62.461V42.505H174.507V44.8577ZM168.5 60.3583C164.526 60.3583 161.93 57.2749 161.93 52.4862C161.93 47.6142 164.199 44.8577 168.096 44.8577C172.398 44.8577 174.424 47.3706 174.424 52.4862C174.507 57.5185 172.398 60.3583 168.5 60.3583ZM189.764 42.0178C183.757 42.0178 179.623 46.4796 179.623 52.8131V53.5439C179.706 56.3005 180.924 58.9031 182.95 60.8455C184.898 62.6341 187.411 63.6854 190.091 63.6854H190.495C193.335 63.6854 196.014 62.6276 198.123 60.8455L198.207 60.7622L196.745 58.4929L196.585 58.5762C194.88 60.1211 192.771 61.0122 190.501 61.0122C186.77 61.0122 182.956 58.5762 182.712 53.1401H198.367V52.9798C198.367 52.9798 198.45 52.0054 198.45 51.5182C198.45 45.7552 195.04 42.0178 189.764 42.0178ZM182.866 50.6208C183.514 46.9668 186.193 44.6141 189.681 44.6141C192.277 44.6141 195.117 46.159 195.36 50.6208H182.866ZM211.111 42.4217C210.707 42.3384 210.38 42.3384 209.976 42.2614C207.137 42.2614 204.784 44.05 203.566 47.0501V42.4217H200.566L200.649 62.9546V63.1148H203.733V54.435C203.733 53.1337 203.893 51.7554 204.303 50.5374C205.277 47.3706 207.47 45.3449 210.066 45.3449C210.393 45.3449 210.714 45.3449 211.041 45.4282H211.201V42.4281L211.111 42.4217Z" fill="#1D2028"/>
</g>
<defs>
<clipPath id="clip0_2063_4258">
<rect width="160.199" height="39.3605" fill="white" transform="translate(50.9893 32.2842)"/>
</clipPath>
</defs>
</svg>
