<svg width="263" height="102" viewBox="0 0 263 102" fill="none" xmlns="http://www.w3.org/2000/svg">
<rect x="-0.000976562" y="0.0810547" width="263" height="101.085" rx="13.4184" fill="white"/>
<path fill-rule="evenodd" clip-rule="evenodd" d="M78.1123 26.131C73.6454 26.68 68.7293 28.9759 64.5368 32.5195C63.6884 33.2182 61.9166 34.9401 61.9166 35.0399C61.9166 35.0898 62.765 35.9882 63.8132 37.0363L65.7097 38.9578L64.9112 39.8562C61.9665 43.1752 59.9701 46.5441 58.7723 50.1126C58.0236 52.3586 57.6992 54.2052 57.6992 56.2765C57.6992 58.1481 57.9488 59.6703 58.5227 61.1427L58.7473 61.7416L64.3122 67.3065C68.9538 71.9481 70.0019 72.9463 70.5759 73.3206C71.7737 74.1192 73.1712 74.6682 74.7184 74.9926C75.7416 75.2172 78.1123 75.292 79.2352 75.1423C83.6772 74.5933 88.2689 72.4971 92.2866 69.1532C93.3347 68.2797 95.1065 66.6078 95.1065 66.5079C95.1065 66.458 94.2331 65.5597 93.185 64.4866L91.2635 62.5401L91.8624 61.9163C93.3347 60.3691 95.1315 57.8985 96.1796 55.9521C97.6768 53.232 98.6501 50.2873 98.9745 47.5922C99.0993 46.4193 99.0244 43.9238 98.8248 42.9755C98.4754 41.3784 97.9264 40.0808 97.1029 38.833C96.6787 38.1842 95.8302 37.3108 91.1387 32.5943L85.6486 27.1043L85.0747 26.8797C84.3011 26.5553 82.704 26.1809 81.7307 26.0811C80.7575 25.9813 79.2352 26.0063 78.1123 26.131ZM82.8287 27.6034C83.228 27.7032 83.8768 27.8529 84.2262 27.9777C84.875 28.2023 84.9 28.2023 85.9231 29.2254C86.8215 30.1238 86.9463 30.2486 86.7217 30.2236C85.5238 29.999 83.6023 29.9491 82.105 30.1488C77.3137 30.7477 72.3727 33.1683 67.8309 37.1611C67.3817 37.5603 66.9824 37.9097 66.9075 37.9596C66.8327 38.0095 66.4334 37.6851 65.2605 36.5122L63.7133 34.965L64.7115 34.0916C68.879 30.4482 73.4707 28.1524 77.9625 27.5035C79.1604 27.3289 81.8305 27.4037 82.8287 27.6034ZM89.3669 35.539C91.5629 35.8634 93.4844 36.8117 94.9069 38.2341C96.3043 39.6316 97.2027 41.4283 97.6269 43.6743C97.8016 44.6725 97.8016 46.9184 97.6269 48.0913C97.053 51.7097 95.381 55.428 92.7857 58.8219C92.1868 59.6204 90.7644 61.2924 90.5398 61.4671C90.415 61.5669 90.2653 61.4421 88.9676 60.1445C88.1691 59.3459 87.5202 58.6721 87.5202 58.6472C87.5202 58.6222 87.7448 58.3477 88.0193 58.0483C92.5362 53.0573 94.6573 46.8186 93.16 42.9506C92.5611 41.4533 91.3134 40.3303 89.6913 39.8312C88.8678 39.5817 87.4204 39.4569 86.3474 39.5817C84.7003 39.7314 82.679 40.3802 80.7325 41.3285C78.786 42.2768 77.0143 43.4746 75.2924 45.0218L74.5188 45.6956L73.0464 44.2233L71.5741 42.7509L72.198 42.177C76.0161 38.6084 81.0819 36.0631 85.424 35.4891C86.2974 35.4142 88.5434 35.4142 89.3669 35.539ZM68.7293 44.1484C68.1802 44.7723 67.4815 45.6457 67.1321 46.0949C62.9896 51.6099 61.0931 57.5991 61.8667 62.7647L61.9166 63.0891L60.8934 62.0909C59.9202 61.1427 59.8703 61.0678 59.6707 60.4689C57.7242 54.879 60.1697 47.168 65.9343 40.7047L66.6081 39.956L68.1553 41.5032L69.7025 43.0504L68.7293 44.1484ZM88.219 40.9542L88.4186 41.0041L88.3687 42.0522C88.3188 43.3 88.1441 44.3231 87.8946 45.1965C87.096 47.8168 85.6237 50.437 83.4776 52.9076L82.654 53.8558L81.0819 52.2837L79.5097 50.7115L80.2334 49.913C81.7806 48.2161 83.2031 46.2446 84.0765 44.5727C84.5506 43.6743 85.1745 42.152 85.3492 41.4533C85.449 41.0291 85.449 41.0291 85.8233 40.9792C86.0229 40.9542 86.2475 40.9292 86.3224 40.9043C86.522 40.9043 88.0443 40.9043 88.219 40.9542ZM83.7521 42.0522C83.4027 43.0255 82.6291 44.5227 81.8804 45.6457C81.0569 46.8934 80.483 47.6421 79.3351 48.9397L78.5365 49.8631L76.9643 48.2909L75.3922 46.7188L75.9162 46.2446C77.5383 44.7972 79.4349 43.4996 81.1817 42.6012C82.13 42.1271 83.6772 41.5032 83.9018 41.4783C83.9267 41.4783 83.8768 41.7278 83.7521 42.0522ZM107.659 43.0005C107.584 43.0754 107.559 45.1466 107.559 52.7329C107.559 61.9662 107.559 62.3654 107.709 62.4902C107.833 62.615 108.233 62.615 111.602 62.615C113.648 62.615 115.869 62.5651 116.518 62.5401C119.138 62.3654 121.159 61.517 122.707 59.9698C123.929 58.747 124.703 57.0501 125.102 54.8041C125.277 53.7061 125.277 51.4103 125.102 50.3372C124.453 46.7188 122.382 44.373 119.063 43.4247C117.441 42.9755 117.316 42.9506 112.375 42.9256C108.707 42.9256 107.734 42.9256 107.659 43.0005ZM198.519 43.3249C198.444 43.3998 198.419 44.0236 198.419 45.6208V47.8168H197.471C196.847 47.8168 196.498 47.8417 196.423 47.9166C196.298 48.0414 196.298 50.6367 196.423 50.7864C196.498 50.8613 196.847 50.8862 197.471 50.8862H198.419L198.444 55.3282C198.469 59.6703 198.469 59.7951 198.644 60.2942C199.118 61.6667 200.091 62.4154 201.664 62.615C202.737 62.7398 204.259 62.6899 205.307 62.4902L205.532 62.4403L205.507 60.6186L205.482 58.7969L204.483 58.747C203.41 58.6971 203.236 58.6472 203.111 58.4226C203.061 58.3228 203.036 56.8255 203.036 54.6045V50.9361L204.309 50.9112L205.581 50.8862V49.364V47.8417L204.309 47.8168L203.036 47.7918V45.6457C203.036 44.3231 203.011 43.4497 202.961 43.3499C202.886 43.2001 202.762 43.2001 200.765 43.2001C199.193 43.25 198.594 43.275 198.519 43.3249ZM116.842 47.5423C118.364 47.9416 119.363 49.0146 119.762 50.5868C120.061 51.7846 120.061 53.781 119.737 55.0287C119.413 56.2515 118.664 57.2248 117.666 57.6989C116.792 58.1231 116.268 58.198 114.471 58.2479L112.849 58.2978V52.8077V47.3177L114.596 47.3676C115.869 47.3925 116.493 47.4425 116.842 47.5423ZM132.09 47.6421C129.594 48.0913 127.673 49.7383 126.824 52.134C125.701 55.2783 126.25 58.8718 128.147 60.8931C129.145 61.9412 130.093 62.4902 131.541 62.8645C134.311 63.5633 137.28 62.8396 139.252 60.9929C139.726 60.5687 140.949 59.0215 140.949 58.8718C140.949 58.6971 140.599 58.4725 139.177 57.7488C138.303 57.2996 137.58 56.9253 137.555 56.9253C137.53 56.9253 137.38 57.1499 137.23 57.4244C136.881 58.0982 136.157 58.8468 135.633 59.1213C134.061 59.8949 132.214 59.4457 131.416 58.0982C131.191 57.6989 130.967 57.0002 130.967 56.6258V56.3513H135.958C139.726 56.3513 140.949 56.3264 141.023 56.2515C141.148 56.1267 141.148 55.1285 140.998 54.1303C140.599 51.4602 139.476 49.5387 137.679 48.4656C137.081 48.1162 135.933 47.717 135.184 47.5922C134.435 47.4674 132.838 47.4924 132.09 47.6421ZM148.485 47.5423C147.786 47.6421 147.212 47.7669 146.763 47.9166C144.243 48.7152 142.571 50.7864 142.047 53.7311C141.847 54.854 141.922 56.6508 142.196 57.7238C142.571 59.1712 143.12 60.1195 144.118 61.0678C144.991 61.8913 146.014 62.4653 147.387 62.8396C147.786 62.9644 148.185 62.9893 149.209 62.9893C150.381 62.9893 150.556 62.9644 151.205 62.7647C152.503 62.3654 153.501 61.7665 154.399 60.8182C154.998 60.1944 155.672 59.271 155.672 59.0714C155.672 58.9965 155.547 58.8718 155.422 58.7719C154.898 58.4475 152.478 57.2497 152.353 57.2497C152.278 57.2497 152.153 57.4244 152.028 57.6739C151.729 58.3228 151.33 58.747 150.706 59.0465C150.232 59.271 150.082 59.321 149.558 59.296C148.859 59.296 148.41 59.1213 147.836 58.6222C146.339 57.2996 146.239 53.6313 147.661 51.9593C148.56 50.9112 150.232 50.9112 151.305 51.9343C151.479 52.109 151.729 52.4334 151.854 52.658C151.979 52.8826 152.128 53.0822 152.203 53.0822C152.378 53.1322 155.447 51.3604 155.497 51.1857C155.522 51.036 155.198 50.5369 154.724 49.9379C153.95 48.9897 152.428 48.0663 151.105 47.7669C150.431 47.5922 148.984 47.4924 148.485 47.5423ZM188.512 47.717C187.689 47.8667 186.94 48.1661 186.341 48.6153L185.867 48.9647L185.842 48.4656L185.817 47.9665L183.896 47.9416C182.199 47.9166 181.949 47.9416 181.825 48.0663C181.675 48.1911 181.675 48.5654 181.675 57.7987C181.675 65.1604 181.7 67.4063 181.775 67.4812C181.924 67.6309 186.117 67.6309 186.242 67.4812C186.316 67.4063 186.341 66.6577 186.341 64.6363V61.8913L187.115 62.2906C188.163 62.8146 188.812 62.9394 190.035 62.8895C191.457 62.8146 192.306 62.5401 193.229 61.8414C194.527 60.8681 195.375 59.3709 195.849 57.2996C196.099 56.2016 196.099 54.2801 195.849 53.1072C195.525 51.56 195.001 50.5119 194.052 49.5137C192.655 47.9665 190.609 47.3426 188.512 47.717ZM75.9662 49.1893C77.3137 50.5369 77.3886 50.6367 77.2888 50.7864C77.2139 50.8613 76.8895 51.2356 76.5401 51.6349C75.1426 53.232 73.845 55.1784 72.9716 56.9752C72.3477 58.2479 71.9734 59.296 71.5991 60.7184C71.1249 62.59 71.1249 64.6613 71.649 66.1087C72.6222 68.8537 75.1925 70.1513 78.786 69.7271C82.2548 69.3029 86.2475 67.3065 89.6663 64.287L90.39 63.6381L91.8624 65.1105L93.3347 66.5828L92.7108 67.1568C89.5166 70.1264 85.2493 72.547 81.556 73.4454C80.0587 73.8197 79.0106 73.9445 77.5882 73.9445C75.6916 73.9445 74.2942 73.6949 72.8218 73.0461C70.9253 72.2226 69.1784 70.6005 68.2801 68.8038C67.1571 66.5828 66.8327 63.8378 67.3318 60.8682C68.0305 56.7257 70.3513 52.2837 73.7701 48.4656C74.1195 48.0663 74.4439 47.7419 74.4689 47.7419C74.4938 47.7419 75.1676 48.3907 75.9662 49.1893ZM164.755 47.8417C163.782 47.9915 162.559 48.4407 161.761 48.9647L161.511 49.1394V48.6153C161.511 48.3159 161.461 48.0663 161.411 47.9915C161.337 47.9166 160.763 47.8916 159.29 47.8916C157.444 47.8916 157.244 47.8916 157.144 48.0414C157.019 48.1661 157.019 48.79 157.019 55.2783C157.019 62.041 157.019 62.3654 157.169 62.4902C157.294 62.615 157.568 62.615 159.365 62.615C160.962 62.615 161.436 62.59 161.511 62.5152C161.561 62.4403 161.611 60.968 161.611 57.9484C161.636 53.756 161.636 53.4566 161.786 53.1821C162.085 52.5832 162.609 52.3336 164.132 52.0841C164.706 51.9842 165.279 51.8844 165.404 51.8595L165.629 51.8096V49.8631C165.629 47.9166 165.604 47.692 165.354 47.7419C165.255 47.7669 165.005 47.7918 164.755 47.8417ZM166.802 48.0164C166.752 48.0913 166.727 48.2161 166.752 48.3408C166.777 48.4407 167.451 50.6367 168.249 53.1821C171.443 63.4635 171.269 62.8645 171.044 63.2638C170.844 63.6631 170.495 63.738 169.247 63.738C168.474 63.738 168.074 63.7629 168.024 63.8378C167.95 63.9126 167.925 64.4117 167.925 65.6345C167.925 66.8573 167.95 67.3564 168.024 67.4313C168.149 67.556 171.319 67.556 172.142 67.4562C173.515 67.2566 174.638 66.2833 175.286 64.7361C175.436 64.4117 176.709 60.5437 178.131 56.1517C180.302 49.5137 180.727 48.1412 180.627 48.0414C180.552 47.9416 180.177 47.9166 178.206 47.9166H175.885L175.81 48.266C175.76 48.4656 175.286 50.5369 174.737 52.9076C174.188 55.2783 173.739 57.2497 173.689 57.2747C173.664 57.2996 173.14 55.2034 172.566 52.6331L171.493 47.9166H169.172C167.251 47.9166 166.877 47.9166 166.802 48.0164ZM134.934 51.1358C135.683 51.4851 136.182 52.1589 136.332 52.9824L136.382 53.2819H133.712H131.041L131.091 53.0323C131.191 52.5831 131.615 51.8595 131.965 51.56C132.564 51.036 133.088 50.8613 133.911 50.9112C134.311 50.9361 134.61 51.011 134.934 51.1358ZM190.01 51.2605C190.708 51.6349 191.232 52.4085 191.482 53.4566C191.657 54.2302 191.657 56.0768 191.457 56.8504C191.282 57.5242 190.933 58.2229 190.559 58.6971C189.96 59.4208 188.787 59.6204 187.839 59.1463C186.741 58.5973 186.217 57.3745 186.217 55.3282C186.217 53.4316 186.716 52.0841 187.639 51.4103C188.363 50.9112 189.236 50.8613 190.01 51.2605ZM80.8573 55.3032C78.811 57.2247 76.1907 58.9466 74.0197 59.8201C73.5705 59.9947 73.1712 60.1445 73.1463 60.1445C73.1213 60.1445 73.2211 59.87 73.3459 59.5206C74.2942 56.9003 75.9412 54.2302 77.9126 52.109L78.3868 51.6099L79.9589 53.1571L81.5311 54.7043L80.8573 55.3032ZM84.0016 57.2497L85.5238 58.7719L85.0497 59.2211C82.5542 61.5669 78.7112 63.688 75.9911 64.262C75.3173 64.4117 73.82 64.5615 73.0963 64.5615H72.6222V63.4135C72.6222 62.7897 72.6472 62.1159 72.6721 61.9662L72.722 61.6667L73.6953 61.3423C76.1658 60.5437 79.3101 58.5723 81.6309 56.3763C82.0052 56.0269 82.3546 55.7275 82.4045 55.7275C82.4544 55.7275 83.1781 56.4012 84.0016 57.2497Z" fill="#1D1D1B"/>
</svg>
