<svg width="32" height="32" viewBox="0 0 32 32" fill="none" xmlns="http://www.w3.org/2000/svg">
<rect x="5" y="5" width="16" height="22" rx="1" stroke="#04AC36" stroke-width="2"/>
<path d="M24 5V27" stroke="#04AC36" stroke-width="2" stroke-linecap="round"/>
<path d="M27 5V27" stroke="#04AC36" stroke-width="2" stroke-linecap="round"/>
<path fill-rule="evenodd" clip-rule="evenodd" d="M13 25C16.3137 25 19 22.3137 19 19C19 15.6863 16.3137 13 13 13C9.68629 13 7 15.6863 7 19C7 22.3137 9.68629 25 13 25ZM16.7071 17.7071C17.0976 17.3166 17.0976 16.6834 16.7071 16.2929C16.3166 15.9024 15.6834 15.9024 15.2929 16.2929L11.9062 19.6796L10.6 18.7C10.1582 18.3686 9.53137 18.4582 9.2 18.9C8.86863 19.3418 8.95817 19.9686 9.4 20.3L11.4 21.8L12.0938 22.3204L12.7071 21.7071L16.7071 17.7071Z" fill="#04AC36"/>
</svg>
