<svg width="32" height="32" viewBox="0 0 32 32" fill="none" xmlns="http://www.w3.org/2000/svg">
<mask id="path-1-inside-1_891_46639" fill="white">
<rect x="10" y="14" width="12" height="9" rx="1.14286"/>
</mask>
<rect x="10" y="14" width="12" height="9" rx="1.14286" stroke="#04AC36" stroke-width="4" mask="url(#path-1-inside-1_891_46639)"/>
<path d="M20 15C20 14.9843 19.9999 12.7867 19.9997 12.771C19.9868 11.7754 19.5669 10.8233 18.8284 10.1183C18.0783 9.40227 17.0609 9 16 9C14.9391 9 13.9217 9.40227 13.1716 10.1183C12.4331 10.8233 12.0132 11.7754 12.0003 12.771C12.0001 12.7867 12 14.9843 12 15L14.3467 15C14.3467 14.9843 14.3469 12.7867 14.3474 12.771C14.3599 12.3696 14.5325 11.9871 14.8309 11.7022C15.141 11.4063 15.5615 11.24 16 11.24C16.4385 11.24 16.859 11.4063 17.1691 11.7022C17.4675 11.9871 17.6401 12.3696 17.6526 12.771C17.6531 12.7867 17.6533 14.9843 17.6533 15H20Z" fill="#04AC36"/>
<ellipse cx="15.7143" cy="18.7534" rx="1.7143" ry="1.71429" fill="#04AC36"/>
<path d="M27 12.7939C25.96 7.77645 21.4303 4 16 4C11.9725 4 8.44048 6.07728 6.46007 9.19748M5 19.2061C6.04 24.2236 10.5697 28 16 28C20.0287 28 23.5617 25.9214 25.5418 22.7996" stroke="#04AC36" stroke-width="2" stroke-linecap="round"/>
<ellipse cx="5.18184" cy="11.6946" rx="2.18184" ry="2.19847" stroke="#04AC36" stroke-width="2"/>
<path d="M29.0004 20.3059C29.0004 21.5201 28.0236 22.5044 26.8186 22.5044C25.6136 22.5044 24.6367 21.5201 24.6367 20.3059C24.6367 19.0917 25.6136 18.1074 26.8186 18.1074C28.0236 18.1074 29.0004 19.0917 29.0004 20.3059Z" stroke="#04AC36" stroke-width="2"/>
</svg>
