<svg width="32" height="32" viewBox="0 0 32 32" fill="none" xmlns="http://www.w3.org/2000/svg">
<path d="M19.8809 18.2582V12.3447H20.8093L23.8957 17.2712V12.3447H24.6233V18.2582H23.7117L20.6085 13.3484V18.2582H19.8809Z" fill="#04AC36" stroke="#04AC36" stroke-width="0.429851"/>
<path d="M13.6338 18.2582L15.8336 12.3447H16.8791L19.0705 18.2582H18.2843L17.8159 16.9868H14.8884L14.42 18.2582H13.6338ZM15.131 16.3261H17.5733L16.3521 12.9804L15.131 16.3261Z" fill="#04AC36" stroke="#04AC36" stroke-width="0.429851"/>
<path d="M8.78906 18.2582V12.3447H10.8634C11.1589 12.3447 11.4266 12.3698 11.6663 12.42C11.9061 12.4646 12.1124 12.5427 12.2853 12.6542C12.4637 12.7657 12.6003 12.9163 12.6951 13.1059C12.7899 13.2955 12.8373 13.5352 12.8373 13.8252C12.8373 14.1263 12.7676 14.3939 12.6282 14.6281C12.4944 14.8623 12.2853 15.0352 12.0009 15.1467C12.3801 15.2136 12.6645 15.3698 12.854 15.6151C13.0436 15.8549 13.1384 16.1755 13.1384 16.577C13.1384 16.906 13.0771 17.1792 12.9544 17.3967C12.8317 17.6142 12.6617 17.787 12.4442 17.9153C12.2323 18.0379 11.987 18.1272 11.7082 18.1829C11.4294 18.2331 11.1338 18.2582 10.8216 18.2582H8.78906ZM9.51675 17.5974H10.7965C10.9693 17.5974 11.1478 17.5891 11.3318 17.5723C11.5214 17.55 11.697 17.5082 11.8587 17.4469C12.0204 17.38 12.1515 17.2768 12.2518 17.1374C12.3522 16.998 12.4024 16.8112 12.4024 16.577C12.4024 16.3763 12.3634 16.2118 12.2853 16.0835C12.2128 15.9553 12.1124 15.8549 11.9842 15.7824C11.8615 15.7099 11.7193 15.6597 11.5576 15.6318C11.3959 15.604 11.2314 15.59 11.0641 15.59H9.51675V17.5974ZM9.51675 14.9376H10.6543C10.8606 14.9376 11.053 14.9209 11.2314 14.8874C11.4098 14.8484 11.566 14.7871 11.6998 14.7034C11.8336 14.6198 11.9368 14.511 12.0093 14.3772C12.0873 14.2434 12.1264 14.0761 12.1264 13.8754C12.1319 13.6189 12.0762 13.4293 11.9591 13.3066C11.842 13.1839 11.6859 13.1031 11.4907 13.064C11.3011 13.025 11.0948 13.0055 10.8717 13.0055H9.51675V14.9376Z" fill="#04AC36" stroke="#04AC36" stroke-width="0.429851"/>
<path d="M6.61621 18.2582V12.3447H7.34389V18.2582H6.61621Z" fill="#04AC36" stroke="#04AC36" stroke-width="0.429851"/>
<path d="M9.12313 8.7627H5.18284C4.3915 8.7627 3.75 9.4042 3.75 10.1955V20.2254C3.75 21.0167 4.3915 21.6582 5.18284 21.6582H9.12313" stroke="#04AC36" stroke-width="2" stroke-linecap="round"/>
<path d="M22.3769 8.7627H26.3172C27.1085 8.7627 27.75 9.4042 27.75 10.1955V20.2254C27.75 21.0167 27.1085 21.6582 26.3172 21.6582H22.3769" stroke="#04AC36" stroke-width="2" stroke-linecap="round"/>
<path d="M4.4668 24.8818H26.6758" stroke="#04AC36" stroke-width="2" stroke-linecap="round"/>
<line x1="5.4668" y1="5.61328" x2="25.6758" y2="5.61328" stroke="#04AC36" stroke-width="2" stroke-linecap="round"/>
</svg>
